M48
; DRILL file {KiCad (5.1.6-0)} date Thursday, October 14, 2021 at 12:12:27 PM
; FORMAT={-:-/ absolute / inch / decimal}
; #@! TF.CreationDate,2021-10-14T12:12:27-06:00
; #@! TF.GenerationSoftware,Kicad,Pcbnew,(5.1.6-0)
; #@! TF.FileFunction,Plated,1,2,PTH
FMAT,2
INCH
T1C0.0157
T2C0.0394
%
G90
G05
T1
X7.4825Y-3.4504
X7.485Y-3.67
X7.5223Y-2.8627
X7.525Y-4.795
X7.5285Y-3.205
X7.54Y-3.365
X7.595Y-3.38
X7.6344Y-3.5503
X7.6487Y-3.1957
X7.6665Y-3.61
X7.68Y-3.23
X7.6955Y-3.5487
X7.7132Y-3.4968
X7.715Y-3.265
X7.725Y-3.19
X7.7315Y-3.435
X7.7315Y-4.185
X7.7703Y-4.5378
X7.7975Y-4.2875
X7.84Y-4.13
X7.95Y-2.885
X7.97Y-3.24
X7.9875Y-3.4675
X8.0Y-3.175
X8.0481Y-3.17
X8.06Y-3.2075
X8.0637Y-3.2538
X8.07Y-3.47
X8.14Y-4.15
X8.1425Y-3.8075
X8.1608Y-3.735
X8.1885Y-3.5088
X8.2Y-2.75
X8.225Y-4.1065
X8.24Y-3.575
T2
X8.3Y-2.8
X8.3Y-2.9
X8.3Y-3.0
X8.3Y-3.1
X8.3Y-3.2
X8.3Y-3.3
X8.3Y-3.4
X8.3Y-3.5
X8.3Y-3.6
X8.3Y-3.7
X8.3Y-3.8
X8.3Y-3.9
X8.3Y-4.0
X8.3Y-4.1
X8.3Y-4.2
X8.3Y-4.3
X8.3Y-4.4
X8.3Y-4.5
X8.3Y-4.6
X8.3Y-4.7
X8.3Y-4.8
X7.98Y-3.58
X7.98Y-3.68
X7.98Y-3.78
X7.98Y-3.88
X7.98Y-3.98
X8.08Y-3.58
X8.08Y-3.68
X8.08Y-3.78
X8.08Y-3.88
X8.08Y-3.98
X7.98Y-4.44
X7.98Y-4.54
X7.98Y-4.64
X8.08Y-4.44
X8.08Y-4.54
X8.08Y-4.64
X7.4Y-2.8
X7.4Y-2.9
X7.4Y-3.0
X7.4Y-3.1
X7.4Y-3.2
X7.4Y-3.3
X7.4Y-3.4
X7.4Y-3.5
X7.4Y-3.6
X7.4Y-3.7
X7.4Y-3.8
X7.4Y-3.9
X7.4Y-4.0
X7.4Y-4.1
X7.4Y-4.2
X7.4Y-4.3
X7.4Y-4.4
X7.4Y-4.5
X7.4Y-4.6
X7.4Y-4.7
X7.4Y-4.8
T0
M30
