%TF.GenerationSoftware,KiCad,Pcbnew,(5.1.6-0)*%
%TF.CreationDate,2021-10-14T13:54:28-06:00*%
%TF.ProjectId,ESP32-S2-Mini,45535033-322d-4533-922d-4d696e692e6b,rev?*%
%TF.SameCoordinates,Original*%
%TF.FileFunction,Soldermask,Bot*%
%TF.FilePolarity,Negative*%
%FSLAX46Y46*%
G04 Gerber Fmt 4.6, Leading zero omitted, Abs format (unit mm)*
G04 Created by KiCad (PCBNEW (5.1.6-0)) date 2021-10-14 13:54:28*
%MOMM*%
%LPD*%
G01*
G04 APERTURE LIST*
%ADD10C,1.801600*%
%ADD11O,1.801600X1.801600*%
%ADD12R,1.801600X1.801600*%
G04 APERTURE END LIST*
D10*
%TO.C,J4*%
X205232000Y-101092000D03*
X205232000Y-98552000D03*
X205232000Y-96012000D03*
X205232000Y-93472000D03*
X205232000Y-90932000D03*
X202692000Y-101092000D03*
X202692000Y-98552000D03*
X202692000Y-96012000D03*
X202692000Y-93472000D03*
G36*
G01*
X201791200Y-91567859D02*
X201791200Y-90296141D01*
G75*
G02*
X202056141Y-90031200I264941J0D01*
G01*
X203327859Y-90031200D01*
G75*
G02*
X203592800Y-90296141I0J-264941D01*
G01*
X203592800Y-91567859D01*
G75*
G02*
X203327859Y-91832800I-264941J0D01*
G01*
X202056141Y-91832800D01*
G75*
G02*
X201791200Y-91567859I0J264941D01*
G01*
G37*
%TD*%
%TO.C,J3*%
X205232000Y-117856000D03*
X205232000Y-115316000D03*
X205232000Y-112776000D03*
X202692000Y-117856000D03*
X202692000Y-115316000D03*
G36*
G01*
X201791200Y-113411859D02*
X201791200Y-112140141D01*
G75*
G02*
X202056141Y-111875200I264941J0D01*
G01*
X203327859Y-111875200D01*
G75*
G02*
X203592800Y-112140141I0J-264941D01*
G01*
X203592800Y-113411859D01*
G75*
G02*
X203327859Y-113676800I-264941J0D01*
G01*
X202056141Y-113676800D01*
G75*
G02*
X201791200Y-113411859I0J264941D01*
G01*
G37*
%TD*%
D11*
%TO.C,J2*%
X210820000Y-121920000D03*
X210820000Y-119380000D03*
X210820000Y-116840000D03*
X210820000Y-114300000D03*
X210820000Y-111760000D03*
X210820000Y-109220000D03*
X210820000Y-106680000D03*
X210820000Y-104140000D03*
X210820000Y-101600000D03*
X210820000Y-99060000D03*
X210820000Y-96520000D03*
X210820000Y-93980000D03*
X210820000Y-91440000D03*
X210820000Y-88900000D03*
X210820000Y-86360000D03*
X210820000Y-83820000D03*
X210820000Y-81280000D03*
X210820000Y-78740000D03*
X210820000Y-76200000D03*
X210820000Y-73660000D03*
D12*
X210820000Y-71120000D03*
%TD*%
D11*
%TO.C,J1*%
X187960000Y-121920000D03*
X187960000Y-119380000D03*
X187960000Y-116840000D03*
X187960000Y-114300000D03*
X187960000Y-111760000D03*
X187960000Y-109220000D03*
X187960000Y-106680000D03*
X187960000Y-104140000D03*
X187960000Y-101600000D03*
X187960000Y-99060000D03*
X187960000Y-96520000D03*
X187960000Y-93980000D03*
X187960000Y-91440000D03*
X187960000Y-88900000D03*
X187960000Y-86360000D03*
X187960000Y-83820000D03*
X187960000Y-81280000D03*
X187960000Y-78740000D03*
X187960000Y-76200000D03*
X187960000Y-73660000D03*
D12*
X187960000Y-71120000D03*
%TD*%
M02*
