%TF.GenerationSoftware,KiCad,Pcbnew,(5.1.6-0)*%
%TF.CreationDate,2021-10-14T13:54:28-06:00*%
%TF.ProjectId,ESP32-S2-Mini,45535033-322d-4533-922d-4d696e692e6b,rev?*%
%TF.SameCoordinates,Original*%
%TF.FileFunction,Paste,Top*%
%TF.FilePolarity,Positive*%
%FSLAX46Y46*%
G04 Gerber Fmt 4.6, Leading zero omitted, Abs format (unit mm)*
G04 Created by KiCad (PCBNEW (5.1.6-0)) date 2021-10-14 13:54:28*
%MOMM*%
%LPD*%
G01*
G04 APERTURE LIST*
%ADD10R,1.500000X2.000000*%
%ADD11R,3.800000X2.000000*%
%ADD12R,1.200000X1.200000*%
%ADD13C,0.100000*%
%ADD14R,0.800000X0.800000*%
%ADD15R,0.400000X0.800000*%
%ADD16R,0.800000X0.400000*%
%ADD17R,1.000000X1.500000*%
G04 APERTURE END LIST*
D10*
%TO.C,U1*%
X196673500Y-98132500D03*
X192073500Y-98132500D03*
X194373500Y-98132500D03*
D11*
X194373500Y-104432500D03*
%TD*%
D12*
%TO.C,U2*%
X197740000Y-78612000D03*
X201040000Y-78612000D03*
X201040000Y-75312000D03*
D13*
G36*
X198340000Y-75912000D02*
G01*
X197140000Y-75912000D01*
X197140000Y-75312000D01*
X197740000Y-74712000D01*
X198340000Y-74712000D01*
X198340000Y-75912000D01*
G37*
D12*
X199390000Y-78612000D03*
X197740000Y-76962000D03*
X199390000Y-75312000D03*
X201040000Y-76962000D03*
X199390000Y-76962000D03*
D14*
X206390000Y-83962000D03*
X192390000Y-83962000D03*
X206340000Y-69962000D03*
X192390000Y-69962000D03*
D15*
X193440000Y-69962000D03*
X194290000Y-69962000D03*
X195140000Y-69962000D03*
X195990000Y-69962000D03*
X196840000Y-69962000D03*
X197690000Y-69962000D03*
X198540000Y-69962000D03*
X199390000Y-69962000D03*
X200240000Y-69962000D03*
X201090000Y-69962000D03*
X201940000Y-69962000D03*
X202790000Y-69962000D03*
X203640000Y-69962000D03*
X204490000Y-69962000D03*
X205340000Y-69962000D03*
D16*
X206390000Y-71012000D03*
X206390000Y-71862000D03*
X206390000Y-72712000D03*
X206390000Y-73562000D03*
X206390000Y-74412000D03*
X206390000Y-75262000D03*
X206390000Y-76112000D03*
X206390000Y-76962000D03*
X206390000Y-77812000D03*
X206390000Y-78662000D03*
X206390000Y-79512000D03*
X206390000Y-80362000D03*
X206390000Y-81212000D03*
X206390000Y-82062000D03*
X206390000Y-82912000D03*
D15*
X205340000Y-83962000D03*
X204490000Y-83962000D03*
X203640000Y-83962000D03*
X202790000Y-83962000D03*
X201940000Y-83962000D03*
X201090000Y-83962000D03*
X200240000Y-83962000D03*
X199390000Y-83962000D03*
X198540000Y-83962000D03*
X197690000Y-83962000D03*
X196840000Y-83962000D03*
X195990000Y-83962000D03*
X195140000Y-83962000D03*
X194290000Y-83962000D03*
X193440000Y-83962000D03*
D16*
X192390000Y-82912000D03*
X192390000Y-82062000D03*
X192390000Y-81212000D03*
X192390000Y-80362000D03*
X192390000Y-79512000D03*
X192390000Y-78662000D03*
X192390000Y-77812000D03*
X192390000Y-76962000D03*
X192390000Y-76112000D03*
X192390000Y-75262000D03*
X192390000Y-74412000D03*
X192390000Y-73562000D03*
X192390000Y-72712000D03*
X192390000Y-71862000D03*
X192390000Y-71012000D03*
%TD*%
%TO.C,R2*%
G36*
G01*
X192988250Y-110675000D02*
X192075750Y-110675000D01*
G75*
G02*
X191832000Y-110431250I0J243750D01*
G01*
X191832000Y-109943750D01*
G75*
G02*
X192075750Y-109700000I243750J0D01*
G01*
X192988250Y-109700000D01*
G75*
G02*
X193232000Y-109943750I0J-243750D01*
G01*
X193232000Y-110431250D01*
G75*
G02*
X192988250Y-110675000I-243750J0D01*
G01*
G37*
G36*
G01*
X192988250Y-112550000D02*
X192075750Y-112550000D01*
G75*
G02*
X191832000Y-112306250I0J243750D01*
G01*
X191832000Y-111818750D01*
G75*
G02*
X192075750Y-111575000I243750J0D01*
G01*
X192988250Y-111575000D01*
G75*
G02*
X193232000Y-111818750I0J-243750D01*
G01*
X193232000Y-112306250D01*
G75*
G02*
X192988250Y-112550000I-243750J0D01*
G01*
G37*
%TD*%
%TO.C,R1*%
G36*
G01*
X196544250Y-108721500D02*
X195631750Y-108721500D01*
G75*
G02*
X195388000Y-108477750I0J243750D01*
G01*
X195388000Y-107990250D01*
G75*
G02*
X195631750Y-107746500I243750J0D01*
G01*
X196544250Y-107746500D01*
G75*
G02*
X196788000Y-107990250I0J-243750D01*
G01*
X196788000Y-108477750D01*
G75*
G02*
X196544250Y-108721500I-243750J0D01*
G01*
G37*
G36*
G01*
X196544250Y-110596500D02*
X195631750Y-110596500D01*
G75*
G02*
X195388000Y-110352750I0J243750D01*
G01*
X195388000Y-109865250D01*
G75*
G02*
X195631750Y-109621500I243750J0D01*
G01*
X196544250Y-109621500D01*
G75*
G02*
X196788000Y-109865250I0J-243750D01*
G01*
X196788000Y-110352750D01*
G75*
G02*
X196544250Y-110596500I-243750J0D01*
G01*
G37*
%TD*%
D17*
%TO.C,D1*%
X195910000Y-116930000D03*
X192710000Y-116930000D03*
X195910000Y-121830000D03*
X192710000Y-121830000D03*
%TD*%
%TO.C,C5*%
G36*
G01*
X192855000Y-88594250D02*
X192855000Y-87681750D01*
G75*
G02*
X193098750Y-87438000I243750J0D01*
G01*
X193586250Y-87438000D01*
G75*
G02*
X193830000Y-87681750I0J-243750D01*
G01*
X193830000Y-88594250D01*
G75*
G02*
X193586250Y-88838000I-243750J0D01*
G01*
X193098750Y-88838000D01*
G75*
G02*
X192855000Y-88594250I0J243750D01*
G01*
G37*
G36*
G01*
X190980000Y-88594250D02*
X190980000Y-87681750D01*
G75*
G02*
X191223750Y-87438000I243750J0D01*
G01*
X191711250Y-87438000D01*
G75*
G02*
X191955000Y-87681750I0J-243750D01*
G01*
X191955000Y-88594250D01*
G75*
G02*
X191711250Y-88838000I-243750J0D01*
G01*
X191223750Y-88838000D01*
G75*
G02*
X190980000Y-88594250I0J243750D01*
G01*
G37*
%TD*%
%TO.C,C4*%
G36*
G01*
X191955000Y-91237750D02*
X191955000Y-92150250D01*
G75*
G02*
X191711250Y-92394000I-243750J0D01*
G01*
X191223750Y-92394000D01*
G75*
G02*
X190980000Y-92150250I0J243750D01*
G01*
X190980000Y-91237750D01*
G75*
G02*
X191223750Y-90994000I243750J0D01*
G01*
X191711250Y-90994000D01*
G75*
G02*
X191955000Y-91237750I0J-243750D01*
G01*
G37*
G36*
G01*
X193830000Y-91237750D02*
X193830000Y-92150250D01*
G75*
G02*
X193586250Y-92394000I-243750J0D01*
G01*
X193098750Y-92394000D01*
G75*
G02*
X192855000Y-92150250I0J243750D01*
G01*
X192855000Y-91237750D01*
G75*
G02*
X193098750Y-90994000I243750J0D01*
G01*
X193586250Y-90994000D01*
G75*
G02*
X193830000Y-91237750I0J-243750D01*
G01*
G37*
%TD*%
%TO.C,C3*%
G36*
G01*
X195843500Y-94793750D02*
X195843500Y-95706250D01*
G75*
G02*
X195599750Y-95950000I-243750J0D01*
G01*
X195112250Y-95950000D01*
G75*
G02*
X194868500Y-95706250I0J243750D01*
G01*
X194868500Y-94793750D01*
G75*
G02*
X195112250Y-94550000I243750J0D01*
G01*
X195599750Y-94550000D01*
G75*
G02*
X195843500Y-94793750I0J-243750D01*
G01*
G37*
G36*
G01*
X197718500Y-94793750D02*
X197718500Y-95706250D01*
G75*
G02*
X197474750Y-95950000I-243750J0D01*
G01*
X196987250Y-95950000D01*
G75*
G02*
X196743500Y-95706250I0J243750D01*
G01*
X196743500Y-94793750D01*
G75*
G02*
X196987250Y-94550000I243750J0D01*
G01*
X197474750Y-94550000D01*
G75*
G02*
X197718500Y-94793750I0J-243750D01*
G01*
G37*
%TD*%
%TO.C,C2*%
G36*
G01*
X191955000Y-94793750D02*
X191955000Y-95706250D01*
G75*
G02*
X191711250Y-95950000I-243750J0D01*
G01*
X191223750Y-95950000D01*
G75*
G02*
X190980000Y-95706250I0J243750D01*
G01*
X190980000Y-94793750D01*
G75*
G02*
X191223750Y-94550000I243750J0D01*
G01*
X191711250Y-94550000D01*
G75*
G02*
X191955000Y-94793750I0J-243750D01*
G01*
G37*
G36*
G01*
X193830000Y-94793750D02*
X193830000Y-95706250D01*
G75*
G02*
X193586250Y-95950000I-243750J0D01*
G01*
X193098750Y-95950000D01*
G75*
G02*
X192855000Y-95706250I0J243750D01*
G01*
X192855000Y-94793750D01*
G75*
G02*
X193098750Y-94550000I243750J0D01*
G01*
X193586250Y-94550000D01*
G75*
G02*
X193830000Y-94793750I0J-243750D01*
G01*
G37*
%TD*%
%TO.C,C1*%
G36*
G01*
X196544250Y-112531500D02*
X195631750Y-112531500D01*
G75*
G02*
X195388000Y-112287750I0J243750D01*
G01*
X195388000Y-111800250D01*
G75*
G02*
X195631750Y-111556500I243750J0D01*
G01*
X196544250Y-111556500D01*
G75*
G02*
X196788000Y-111800250I0J-243750D01*
G01*
X196788000Y-112287750D01*
G75*
G02*
X196544250Y-112531500I-243750J0D01*
G01*
G37*
G36*
G01*
X196544250Y-114406500D02*
X195631750Y-114406500D01*
G75*
G02*
X195388000Y-114162750I0J243750D01*
G01*
X195388000Y-113675250D01*
G75*
G02*
X195631750Y-113431500I243750J0D01*
G01*
X196544250Y-113431500D01*
G75*
G02*
X196788000Y-113675250I0J-243750D01*
G01*
X196788000Y-114162750D01*
G75*
G02*
X196544250Y-114406500I-243750J0D01*
G01*
G37*
%TD*%
M02*
