%TF.GenerationSoftware,KiCad,Pcbnew,(5.1.6-0)*%
%TF.CreationDate,2021-10-14T13:54:28-06:00*%
%TF.ProjectId,ESP32-S2-Mini,45535033-322d-4533-922d-4d696e692e6b,rev?*%
%TF.SameCoordinates,Original*%
%TF.FileFunction,Legend,Top*%
%TF.FilePolarity,Positive*%
%FSLAX46Y46*%
G04 Gerber Fmt 4.6, Leading zero omitted, Abs format (unit mm)*
G04 Created by KiCad (PCBNEW (5.1.6-0)) date 2021-10-14 13:54:28*
%MOMM*%
%LPD*%
G01*
G04 APERTURE LIST*
%ADD10C,0.177800*%
%ADD11C,0.120000*%
%ADD12C,0.150000*%
G04 APERTURE END LIST*
D10*
X212767333Y-70459600D02*
X212682666Y-70384609D01*
X212555666Y-70384609D01*
X212428666Y-70459600D01*
X212344000Y-70609580D01*
X212301666Y-70759561D01*
X212259333Y-71059523D01*
X212259333Y-71284495D01*
X212301666Y-71584457D01*
X212344000Y-71734438D01*
X212428666Y-71884419D01*
X212555666Y-71959409D01*
X212640333Y-71959409D01*
X212767333Y-71884419D01*
X212809666Y-71809428D01*
X212809666Y-71284495D01*
X212640333Y-71284495D01*
X211878333Y-73674514D02*
X212174666Y-73674514D01*
X212301666Y-74499409D02*
X211878333Y-74499409D01*
X211878333Y-72924609D01*
X212301666Y-72924609D01*
X212682666Y-74499409D02*
X212682666Y-72924609D01*
X213190666Y-74499409D01*
X213190666Y-72924609D01*
X212280500Y-75989542D02*
X212280500Y-77039409D01*
X212068833Y-75389619D02*
X211857166Y-76514476D01*
X212407500Y-76514476D01*
X213127166Y-75464609D02*
X212957833Y-75464609D01*
X212873166Y-75539600D01*
X212830833Y-75614590D01*
X212746166Y-75839561D01*
X212703833Y-76139523D01*
X212703833Y-76739447D01*
X212746166Y-76889428D01*
X212788500Y-76964419D01*
X212873166Y-77039409D01*
X213042500Y-77039409D01*
X213127166Y-76964419D01*
X213169500Y-76889428D01*
X213211833Y-76739447D01*
X213211833Y-76364495D01*
X213169500Y-76214514D01*
X213127166Y-76139523D01*
X213042500Y-76064533D01*
X212873166Y-76064533D01*
X212788500Y-76139523D01*
X212746166Y-76214514D01*
X212703833Y-76364495D01*
X212280500Y-78529542D02*
X212280500Y-79579409D01*
X212068833Y-77929619D02*
X211857166Y-79054476D01*
X212407500Y-79054476D01*
X213169500Y-78004609D02*
X212746166Y-78004609D01*
X212703833Y-78754514D01*
X212746166Y-78679523D01*
X212830833Y-78604533D01*
X213042500Y-78604533D01*
X213127166Y-78679523D01*
X213169500Y-78754514D01*
X213211833Y-78904495D01*
X213211833Y-79279447D01*
X213169500Y-79429428D01*
X213127166Y-79504419D01*
X213042500Y-79579409D01*
X212830833Y-79579409D01*
X212746166Y-79504419D01*
X212703833Y-79429428D01*
X212386333Y-82119409D02*
X212090000Y-81369504D01*
X211878333Y-82119409D02*
X211878333Y-80544609D01*
X212217000Y-80544609D01*
X212301666Y-80619600D01*
X212344000Y-80694590D01*
X212386333Y-80844571D01*
X212386333Y-81069542D01*
X212344000Y-81219523D01*
X212301666Y-81294514D01*
X212217000Y-81369504D01*
X211878333Y-81369504D01*
X212682666Y-80544609D02*
X213275333Y-82119409D01*
X213275333Y-80544609D02*
X212682666Y-82119409D01*
X211857166Y-83084609D02*
X212365166Y-83084609D01*
X212111166Y-84659409D02*
X212111166Y-83084609D01*
X212576833Y-83084609D02*
X213169500Y-84659409D01*
X213169500Y-83084609D02*
X212576833Y-84659409D01*
X212280500Y-86149542D02*
X212280500Y-87199409D01*
X212068833Y-85549619D02*
X211857166Y-86674476D01*
X212407500Y-86674476D01*
X212703833Y-85774590D02*
X212746166Y-85699600D01*
X212830833Y-85624609D01*
X213042500Y-85624609D01*
X213127166Y-85699600D01*
X213169500Y-85774590D01*
X213211833Y-85924571D01*
X213211833Y-86074552D01*
X213169500Y-86299523D01*
X212661500Y-87199409D01*
X213211833Y-87199409D01*
X212280500Y-88689542D02*
X212280500Y-89739409D01*
X212068833Y-88089619D02*
X211857166Y-89214476D01*
X212407500Y-89214476D01*
X213211833Y-89739409D02*
X212703833Y-89739409D01*
X212957833Y-89739409D02*
X212957833Y-88164609D01*
X212873166Y-88389580D01*
X212788500Y-88539561D01*
X212703833Y-88614552D01*
X212280500Y-91229542D02*
X212280500Y-92279409D01*
X212068833Y-90629619D02*
X211857166Y-91754476D01*
X212407500Y-91754476D01*
X212915500Y-90704609D02*
X213000166Y-90704609D01*
X213084833Y-90779600D01*
X213127166Y-90854590D01*
X213169500Y-91004571D01*
X213211833Y-91304533D01*
X213211833Y-91679485D01*
X213169500Y-91979447D01*
X213127166Y-92129428D01*
X213084833Y-92204419D01*
X213000166Y-92279409D01*
X212915500Y-92279409D01*
X212830833Y-92204419D01*
X212788500Y-92129428D01*
X212746166Y-91979447D01*
X212703833Y-91679485D01*
X212703833Y-91304533D01*
X212746166Y-91004571D01*
X212788500Y-90854590D01*
X212830833Y-90779600D01*
X212915500Y-90704609D01*
X211814833Y-93244609D02*
X212365166Y-93244609D01*
X212068833Y-93844533D01*
X212195833Y-93844533D01*
X212280500Y-93919523D01*
X212322833Y-93994514D01*
X212365166Y-94144495D01*
X212365166Y-94519447D01*
X212322833Y-94669428D01*
X212280500Y-94744419D01*
X212195833Y-94819409D01*
X211941833Y-94819409D01*
X211857166Y-94744419D01*
X211814833Y-94669428D01*
X212788500Y-94819409D02*
X212957833Y-94819409D01*
X213042500Y-94744419D01*
X213084833Y-94669428D01*
X213169500Y-94444457D01*
X213211833Y-94144495D01*
X213211833Y-93544571D01*
X213169500Y-93394590D01*
X213127166Y-93319600D01*
X213042500Y-93244609D01*
X212873166Y-93244609D01*
X212788500Y-93319600D01*
X212746166Y-93394590D01*
X212703833Y-93544571D01*
X212703833Y-93919523D01*
X212746166Y-94069504D01*
X212788500Y-94144495D01*
X212873166Y-94219485D01*
X213042500Y-94219485D01*
X213127166Y-94144495D01*
X213169500Y-94069504D01*
X213211833Y-93919523D01*
X211814833Y-95784609D02*
X212365166Y-95784609D01*
X212068833Y-96384533D01*
X212195833Y-96384533D01*
X212280500Y-96459523D01*
X212322833Y-96534514D01*
X212365166Y-96684495D01*
X212365166Y-97059447D01*
X212322833Y-97209428D01*
X212280500Y-97284419D01*
X212195833Y-97359409D01*
X211941833Y-97359409D01*
X211857166Y-97284419D01*
X211814833Y-97209428D01*
X212873166Y-96459523D02*
X212788500Y-96384533D01*
X212746166Y-96309542D01*
X212703833Y-96159561D01*
X212703833Y-96084571D01*
X212746166Y-95934590D01*
X212788500Y-95859600D01*
X212873166Y-95784609D01*
X213042500Y-95784609D01*
X213127166Y-95859600D01*
X213169500Y-95934590D01*
X213211833Y-96084571D01*
X213211833Y-96159561D01*
X213169500Y-96309542D01*
X213127166Y-96384533D01*
X213042500Y-96459523D01*
X212873166Y-96459523D01*
X212788500Y-96534514D01*
X212746166Y-96609504D01*
X212703833Y-96759485D01*
X212703833Y-97059447D01*
X212746166Y-97209428D01*
X212788500Y-97284419D01*
X212873166Y-97359409D01*
X213042500Y-97359409D01*
X213127166Y-97284419D01*
X213169500Y-97209428D01*
X213211833Y-97059447D01*
X213211833Y-96759485D01*
X213169500Y-96609504D01*
X213127166Y-96534514D01*
X213042500Y-96459523D01*
X211814833Y-98324609D02*
X212365166Y-98324609D01*
X212068833Y-98924533D01*
X212195833Y-98924533D01*
X212280500Y-98999523D01*
X212322833Y-99074514D01*
X212365166Y-99224495D01*
X212365166Y-99599447D01*
X212322833Y-99749428D01*
X212280500Y-99824419D01*
X212195833Y-99899409D01*
X211941833Y-99899409D01*
X211857166Y-99824419D01*
X211814833Y-99749428D01*
X212661500Y-98324609D02*
X213254166Y-98324609D01*
X212873166Y-99899409D01*
X211814833Y-100864609D02*
X212365166Y-100864609D01*
X212068833Y-101464533D01*
X212195833Y-101464533D01*
X212280500Y-101539523D01*
X212322833Y-101614514D01*
X212365166Y-101764495D01*
X212365166Y-102139447D01*
X212322833Y-102289428D01*
X212280500Y-102364419D01*
X212195833Y-102439409D01*
X211941833Y-102439409D01*
X211857166Y-102364419D01*
X211814833Y-102289428D01*
X213127166Y-100864609D02*
X212957833Y-100864609D01*
X212873166Y-100939600D01*
X212830833Y-101014590D01*
X212746166Y-101239561D01*
X212703833Y-101539523D01*
X212703833Y-102139447D01*
X212746166Y-102289428D01*
X212788500Y-102364419D01*
X212873166Y-102439409D01*
X213042500Y-102439409D01*
X213127166Y-102364419D01*
X213169500Y-102289428D01*
X213211833Y-102139447D01*
X213211833Y-101764495D01*
X213169500Y-101614514D01*
X213127166Y-101539523D01*
X213042500Y-101464533D01*
X212873166Y-101464533D01*
X212788500Y-101539523D01*
X212746166Y-101614514D01*
X212703833Y-101764495D01*
X211814833Y-103404609D02*
X212365166Y-103404609D01*
X212068833Y-104004533D01*
X212195833Y-104004533D01*
X212280500Y-104079523D01*
X212322833Y-104154514D01*
X212365166Y-104304495D01*
X212365166Y-104679447D01*
X212322833Y-104829428D01*
X212280500Y-104904419D01*
X212195833Y-104979409D01*
X211941833Y-104979409D01*
X211857166Y-104904419D01*
X211814833Y-104829428D01*
X213169500Y-103404609D02*
X212746166Y-103404609D01*
X212703833Y-104154514D01*
X212746166Y-104079523D01*
X212830833Y-104004533D01*
X213042500Y-104004533D01*
X213127166Y-104079523D01*
X213169500Y-104154514D01*
X213211833Y-104304495D01*
X213211833Y-104679447D01*
X213169500Y-104829428D01*
X213127166Y-104904419D01*
X213042500Y-104979409D01*
X212830833Y-104979409D01*
X212746166Y-104904419D01*
X212703833Y-104829428D01*
X211814833Y-105944609D02*
X212365166Y-105944609D01*
X212068833Y-106544533D01*
X212195833Y-106544533D01*
X212280500Y-106619523D01*
X212322833Y-106694514D01*
X212365166Y-106844495D01*
X212365166Y-107219447D01*
X212322833Y-107369428D01*
X212280500Y-107444419D01*
X212195833Y-107519409D01*
X211941833Y-107519409D01*
X211857166Y-107444419D01*
X211814833Y-107369428D01*
X213127166Y-106469542D02*
X213127166Y-107519409D01*
X212915500Y-105869619D02*
X212703833Y-106994476D01*
X213254166Y-106994476D01*
X211814833Y-108484609D02*
X212365166Y-108484609D01*
X212068833Y-109084533D01*
X212195833Y-109084533D01*
X212280500Y-109159523D01*
X212322833Y-109234514D01*
X212365166Y-109384495D01*
X212365166Y-109759447D01*
X212322833Y-109909428D01*
X212280500Y-109984419D01*
X212195833Y-110059409D01*
X211941833Y-110059409D01*
X211857166Y-109984419D01*
X211814833Y-109909428D01*
X212661500Y-108484609D02*
X213211833Y-108484609D01*
X212915500Y-109084533D01*
X213042500Y-109084533D01*
X213127166Y-109159523D01*
X213169500Y-109234514D01*
X213211833Y-109384495D01*
X213211833Y-109759447D01*
X213169500Y-109909428D01*
X213127166Y-109984419D01*
X213042500Y-110059409D01*
X212788500Y-110059409D01*
X212703833Y-109984419D01*
X212661500Y-109909428D01*
X211857166Y-111174590D02*
X211899500Y-111099600D01*
X211984166Y-111024609D01*
X212195833Y-111024609D01*
X212280500Y-111099600D01*
X212322833Y-111174590D01*
X212365166Y-111324571D01*
X212365166Y-111474552D01*
X212322833Y-111699523D01*
X211814833Y-112599409D01*
X212365166Y-112599409D01*
X213127166Y-111024609D02*
X212957833Y-111024609D01*
X212873166Y-111099600D01*
X212830833Y-111174590D01*
X212746166Y-111399561D01*
X212703833Y-111699523D01*
X212703833Y-112299447D01*
X212746166Y-112449428D01*
X212788500Y-112524419D01*
X212873166Y-112599409D01*
X213042500Y-112599409D01*
X213127166Y-112524419D01*
X213169500Y-112449428D01*
X213211833Y-112299447D01*
X213211833Y-111924495D01*
X213169500Y-111774514D01*
X213127166Y-111699523D01*
X213042500Y-111624533D01*
X212873166Y-111624533D01*
X212788500Y-111699523D01*
X212746166Y-111774514D01*
X212703833Y-111924495D01*
X211857166Y-113714590D02*
X211899500Y-113639600D01*
X211984166Y-113564609D01*
X212195833Y-113564609D01*
X212280500Y-113639600D01*
X212322833Y-113714590D01*
X212365166Y-113864571D01*
X212365166Y-114014552D01*
X212322833Y-114239523D01*
X211814833Y-115139409D01*
X212365166Y-115139409D01*
X213211833Y-115139409D02*
X212703833Y-115139409D01*
X212957833Y-115139409D02*
X212957833Y-113564609D01*
X212873166Y-113789580D01*
X212788500Y-113939561D01*
X212703833Y-114014552D01*
X211857166Y-116254590D02*
X211899500Y-116179600D01*
X211984166Y-116104609D01*
X212195833Y-116104609D01*
X212280500Y-116179600D01*
X212322833Y-116254590D01*
X212365166Y-116404571D01*
X212365166Y-116554552D01*
X212322833Y-116779523D01*
X211814833Y-117679409D01*
X212365166Y-117679409D01*
X212915500Y-116104609D02*
X213000166Y-116104609D01*
X213084833Y-116179600D01*
X213127166Y-116254590D01*
X213169500Y-116404571D01*
X213211833Y-116704533D01*
X213211833Y-117079485D01*
X213169500Y-117379447D01*
X213127166Y-117529428D01*
X213084833Y-117604419D01*
X213000166Y-117679409D01*
X212915500Y-117679409D01*
X212830833Y-117604419D01*
X212788500Y-117529428D01*
X212746166Y-117379447D01*
X212703833Y-117079485D01*
X212703833Y-116704533D01*
X212746166Y-116404571D01*
X212788500Y-116254590D01*
X212830833Y-116179600D01*
X212915500Y-116104609D01*
X212365166Y-120219409D02*
X211857166Y-120219409D01*
X212111166Y-120219409D02*
X212111166Y-118644609D01*
X212026500Y-118869580D01*
X211941833Y-119019561D01*
X211857166Y-119094552D01*
X212788500Y-120219409D02*
X212957833Y-120219409D01*
X213042500Y-120144419D01*
X213084833Y-120069428D01*
X213169500Y-119844457D01*
X213211833Y-119544495D01*
X213211833Y-118944571D01*
X213169500Y-118794590D01*
X213127166Y-118719600D01*
X213042500Y-118644609D01*
X212873166Y-118644609D01*
X212788500Y-118719600D01*
X212746166Y-118794590D01*
X212703833Y-118944571D01*
X212703833Y-119319523D01*
X212746166Y-119469504D01*
X212788500Y-119544495D01*
X212873166Y-119619485D01*
X213042500Y-119619485D01*
X213127166Y-119544495D01*
X213169500Y-119469504D01*
X213211833Y-119319523D01*
X212365166Y-122759409D02*
X211857166Y-122759409D01*
X212111166Y-122759409D02*
X212111166Y-121184609D01*
X212026500Y-121409580D01*
X211941833Y-121559561D01*
X211857166Y-121634552D01*
X212873166Y-121859523D02*
X212788500Y-121784533D01*
X212746166Y-121709542D01*
X212703833Y-121559561D01*
X212703833Y-121484571D01*
X212746166Y-121334590D01*
X212788500Y-121259600D01*
X212873166Y-121184609D01*
X213042500Y-121184609D01*
X213127166Y-121259600D01*
X213169500Y-121334590D01*
X213211833Y-121484571D01*
X213211833Y-121559561D01*
X213169500Y-121709542D01*
X213127166Y-121784533D01*
X213042500Y-121859523D01*
X212873166Y-121859523D01*
X212788500Y-121934514D01*
X212746166Y-122009504D01*
X212703833Y-122159485D01*
X212703833Y-122459447D01*
X212746166Y-122609428D01*
X212788500Y-122684419D01*
X212873166Y-122759409D01*
X213042500Y-122759409D01*
X213127166Y-122684419D01*
X213169500Y-122609428D01*
X213211833Y-122459447D01*
X213211833Y-122159485D01*
X213169500Y-122009504D01*
X213127166Y-121934514D01*
X213042500Y-121859523D01*
X185568166Y-70384609D02*
X186118500Y-70384609D01*
X185822166Y-70984533D01*
X185949166Y-70984533D01*
X186033833Y-71059523D01*
X186076166Y-71134514D01*
X186118500Y-71284495D01*
X186118500Y-71659447D01*
X186076166Y-71809428D01*
X186033833Y-71884419D01*
X185949166Y-71959409D01*
X185695166Y-71959409D01*
X185610500Y-71884419D01*
X185568166Y-71809428D01*
X186372500Y-70384609D02*
X186668833Y-71959409D01*
X186965166Y-70384609D01*
X186203166Y-72924609D02*
X186287833Y-72924609D01*
X186372500Y-72999600D01*
X186414833Y-73074590D01*
X186457166Y-73224571D01*
X186499500Y-73524533D01*
X186499500Y-73899485D01*
X186457166Y-74199447D01*
X186414833Y-74349428D01*
X186372500Y-74424419D01*
X186287833Y-74499409D01*
X186203166Y-74499409D01*
X186118500Y-74424419D01*
X186076166Y-74349428D01*
X186033833Y-74199447D01*
X185991500Y-73899485D01*
X185991500Y-73524533D01*
X186033833Y-73224571D01*
X186076166Y-73074590D01*
X186118500Y-72999600D01*
X186203166Y-72924609D01*
X186499500Y-77039409D02*
X185991500Y-77039409D01*
X186245500Y-77039409D02*
X186245500Y-75464609D01*
X186160833Y-75689580D01*
X186076166Y-75839561D01*
X185991500Y-75914552D01*
X185991500Y-78154590D02*
X186033833Y-78079600D01*
X186118500Y-78004609D01*
X186330166Y-78004609D01*
X186414833Y-78079600D01*
X186457166Y-78154590D01*
X186499500Y-78304571D01*
X186499500Y-78454552D01*
X186457166Y-78679523D01*
X185949166Y-79579409D01*
X186499500Y-79579409D01*
X185949166Y-80544609D02*
X186499500Y-80544609D01*
X186203166Y-81144533D01*
X186330166Y-81144533D01*
X186414833Y-81219523D01*
X186457166Y-81294514D01*
X186499500Y-81444495D01*
X186499500Y-81819447D01*
X186457166Y-81969428D01*
X186414833Y-82044419D01*
X186330166Y-82119409D01*
X186076166Y-82119409D01*
X185991500Y-82044419D01*
X185949166Y-81969428D01*
X186414833Y-83609542D02*
X186414833Y-84659409D01*
X186203166Y-83009619D02*
X185991500Y-84134476D01*
X186541833Y-84134476D01*
X186457166Y-85624609D02*
X186033833Y-85624609D01*
X185991500Y-86374514D01*
X186033833Y-86299523D01*
X186118500Y-86224533D01*
X186330166Y-86224533D01*
X186414833Y-86299523D01*
X186457166Y-86374514D01*
X186499500Y-86524495D01*
X186499500Y-86899447D01*
X186457166Y-87049428D01*
X186414833Y-87124419D01*
X186330166Y-87199409D01*
X186118500Y-87199409D01*
X186033833Y-87124419D01*
X185991500Y-87049428D01*
X186414833Y-88164609D02*
X186245500Y-88164609D01*
X186160833Y-88239600D01*
X186118500Y-88314590D01*
X186033833Y-88539561D01*
X185991500Y-88839523D01*
X185991500Y-89439447D01*
X186033833Y-89589428D01*
X186076166Y-89664419D01*
X186160833Y-89739409D01*
X186330166Y-89739409D01*
X186414833Y-89664419D01*
X186457166Y-89589428D01*
X186499500Y-89439447D01*
X186499500Y-89064495D01*
X186457166Y-88914514D01*
X186414833Y-88839523D01*
X186330166Y-88764533D01*
X186160833Y-88764533D01*
X186076166Y-88839523D01*
X186033833Y-88914514D01*
X185991500Y-89064495D01*
X185949166Y-90704609D02*
X186541833Y-90704609D01*
X186160833Y-92279409D01*
X186160833Y-93919523D02*
X186076166Y-93844533D01*
X186033833Y-93769542D01*
X185991500Y-93619561D01*
X185991500Y-93544571D01*
X186033833Y-93394590D01*
X186076166Y-93319600D01*
X186160833Y-93244609D01*
X186330166Y-93244609D01*
X186414833Y-93319600D01*
X186457166Y-93394590D01*
X186499500Y-93544571D01*
X186499500Y-93619561D01*
X186457166Y-93769542D01*
X186414833Y-93844533D01*
X186330166Y-93919523D01*
X186160833Y-93919523D01*
X186076166Y-93994514D01*
X186033833Y-94069504D01*
X185991500Y-94219485D01*
X185991500Y-94519447D01*
X186033833Y-94669428D01*
X186076166Y-94744419D01*
X186160833Y-94819409D01*
X186330166Y-94819409D01*
X186414833Y-94744419D01*
X186457166Y-94669428D01*
X186499500Y-94519447D01*
X186499500Y-94219485D01*
X186457166Y-94069504D01*
X186414833Y-93994514D01*
X186330166Y-93919523D01*
X186076166Y-97359409D02*
X186245500Y-97359409D01*
X186330166Y-97284419D01*
X186372500Y-97209428D01*
X186457166Y-96984457D01*
X186499500Y-96684495D01*
X186499500Y-96084571D01*
X186457166Y-95934590D01*
X186414833Y-95859600D01*
X186330166Y-95784609D01*
X186160833Y-95784609D01*
X186076166Y-95859600D01*
X186033833Y-95934590D01*
X185991500Y-96084571D01*
X185991500Y-96459523D01*
X186033833Y-96609504D01*
X186076166Y-96684495D01*
X186160833Y-96759485D01*
X186330166Y-96759485D01*
X186414833Y-96684495D01*
X186457166Y-96609504D01*
X186499500Y-96459523D01*
X186076166Y-99899409D02*
X185568166Y-99899409D01*
X185822166Y-99899409D02*
X185822166Y-98324609D01*
X185737500Y-98549580D01*
X185652833Y-98699561D01*
X185568166Y-98774552D01*
X186626500Y-98324609D02*
X186711166Y-98324609D01*
X186795833Y-98399600D01*
X186838166Y-98474590D01*
X186880500Y-98624571D01*
X186922833Y-98924533D01*
X186922833Y-99299485D01*
X186880500Y-99599447D01*
X186838166Y-99749428D01*
X186795833Y-99824419D01*
X186711166Y-99899409D01*
X186626500Y-99899409D01*
X186541833Y-99824419D01*
X186499500Y-99749428D01*
X186457166Y-99599447D01*
X186414833Y-99299485D01*
X186414833Y-98924533D01*
X186457166Y-98624571D01*
X186499500Y-98474590D01*
X186541833Y-98399600D01*
X186626500Y-98324609D01*
X186076166Y-102439409D02*
X185568166Y-102439409D01*
X185822166Y-102439409D02*
X185822166Y-100864609D01*
X185737500Y-101089580D01*
X185652833Y-101239561D01*
X185568166Y-101314552D01*
X186922833Y-102439409D02*
X186414833Y-102439409D01*
X186668833Y-102439409D02*
X186668833Y-100864609D01*
X186584166Y-101089580D01*
X186499500Y-101239561D01*
X186414833Y-101314552D01*
X186076166Y-104979409D02*
X185568166Y-104979409D01*
X185822166Y-104979409D02*
X185822166Y-103404609D01*
X185737500Y-103629580D01*
X185652833Y-103779561D01*
X185568166Y-103854552D01*
X186414833Y-103554590D02*
X186457166Y-103479600D01*
X186541833Y-103404609D01*
X186753500Y-103404609D01*
X186838166Y-103479600D01*
X186880500Y-103554590D01*
X186922833Y-103704571D01*
X186922833Y-103854552D01*
X186880500Y-104079523D01*
X186372500Y-104979409D01*
X186922833Y-104979409D01*
X186076166Y-107519409D02*
X185568166Y-107519409D01*
X185822166Y-107519409D02*
X185822166Y-105944609D01*
X185737500Y-106169580D01*
X185652833Y-106319561D01*
X185568166Y-106394552D01*
X186372500Y-105944609D02*
X186922833Y-105944609D01*
X186626500Y-106544533D01*
X186753500Y-106544533D01*
X186838166Y-106619523D01*
X186880500Y-106694514D01*
X186922833Y-106844495D01*
X186922833Y-107219447D01*
X186880500Y-107369428D01*
X186838166Y-107444419D01*
X186753500Y-107519409D01*
X186499500Y-107519409D01*
X186414833Y-107444419D01*
X186372500Y-107369428D01*
X186076166Y-110059409D02*
X185568166Y-110059409D01*
X185822166Y-110059409D02*
X185822166Y-108484609D01*
X185737500Y-108709580D01*
X185652833Y-108859561D01*
X185568166Y-108934552D01*
X186838166Y-109009542D02*
X186838166Y-110059409D01*
X186626500Y-108409619D02*
X186414833Y-109534476D01*
X186965166Y-109534476D01*
X186076166Y-112599409D02*
X185568166Y-112599409D01*
X185822166Y-112599409D02*
X185822166Y-111024609D01*
X185737500Y-111249580D01*
X185652833Y-111399561D01*
X185568166Y-111474552D01*
X186880500Y-111024609D02*
X186457166Y-111024609D01*
X186414833Y-111774514D01*
X186457166Y-111699523D01*
X186541833Y-111624533D01*
X186753500Y-111624533D01*
X186838166Y-111699523D01*
X186880500Y-111774514D01*
X186922833Y-111924495D01*
X186922833Y-112299447D01*
X186880500Y-112449428D01*
X186838166Y-112524419D01*
X186753500Y-112599409D01*
X186541833Y-112599409D01*
X186457166Y-112524419D01*
X186414833Y-112449428D01*
X186076166Y-115139409D02*
X185568166Y-115139409D01*
X185822166Y-115139409D02*
X185822166Y-113564609D01*
X185737500Y-113789580D01*
X185652833Y-113939561D01*
X185568166Y-114014552D01*
X186838166Y-113564609D02*
X186668833Y-113564609D01*
X186584166Y-113639600D01*
X186541833Y-113714590D01*
X186457166Y-113939561D01*
X186414833Y-114239523D01*
X186414833Y-114839447D01*
X186457166Y-114989428D01*
X186499500Y-115064419D01*
X186584166Y-115139409D01*
X186753500Y-115139409D01*
X186838166Y-115064419D01*
X186880500Y-114989428D01*
X186922833Y-114839447D01*
X186922833Y-114464495D01*
X186880500Y-114314514D01*
X186838166Y-114239523D01*
X186753500Y-114164533D01*
X186584166Y-114164533D01*
X186499500Y-114239523D01*
X186457166Y-114314514D01*
X186414833Y-114464495D01*
X186076166Y-117679409D02*
X185568166Y-117679409D01*
X185822166Y-117679409D02*
X185822166Y-116104609D01*
X185737500Y-116329580D01*
X185652833Y-116479561D01*
X185568166Y-116554552D01*
X186372500Y-116104609D02*
X186965166Y-116104609D01*
X186584166Y-117679409D01*
X186076166Y-118644609D02*
X185652833Y-118644609D01*
X185610500Y-119394514D01*
X185652833Y-119319523D01*
X185737500Y-119244533D01*
X185949166Y-119244533D01*
X186033833Y-119319523D01*
X186076166Y-119394514D01*
X186118500Y-119544495D01*
X186118500Y-119919447D01*
X186076166Y-120069428D01*
X186033833Y-120144419D01*
X185949166Y-120219409D01*
X185737500Y-120219409D01*
X185652833Y-120144419D01*
X185610500Y-120069428D01*
X186372500Y-118644609D02*
X186668833Y-120219409D01*
X186965166Y-118644609D01*
X186478333Y-121259600D02*
X186393666Y-121184609D01*
X186266666Y-121184609D01*
X186139666Y-121259600D01*
X186055000Y-121409580D01*
X186012666Y-121559561D01*
X185970333Y-121859523D01*
X185970333Y-122084495D01*
X186012666Y-122384457D01*
X186055000Y-122534438D01*
X186139666Y-122684419D01*
X186266666Y-122759409D01*
X186351333Y-122759409D01*
X186478333Y-122684419D01*
X186520666Y-122609428D01*
X186520666Y-122084495D01*
X186351333Y-122084495D01*
D11*
%TO.C,U1*%
X190963500Y-103192500D02*
X192223500Y-103192500D01*
X197783500Y-103192500D02*
X196523500Y-103192500D01*
X190963500Y-99432500D02*
X190963500Y-103192500D01*
X197783500Y-97182500D02*
X197783500Y-103192500D01*
%TO.C,U2*%
X207090000Y-64662000D02*
X207090000Y-69262000D01*
X191690000Y-64662000D02*
X191690000Y-69262000D01*
X207090000Y-84662000D02*
X191690000Y-84662000D01*
X207090000Y-69262000D02*
X207090000Y-84662000D01*
X191690000Y-64662000D02*
X207090000Y-64662000D01*
X191690000Y-84662000D02*
X191690000Y-69262000D01*
X192590000Y-64512000D02*
X191390000Y-64512000D01*
X191540000Y-84812000D02*
X191540000Y-83762000D01*
X192590000Y-84812000D02*
X191540000Y-84812000D01*
X207240000Y-84812000D02*
X207240000Y-83762000D01*
X206190000Y-84812000D02*
X207240000Y-84812000D01*
X207240000Y-64512000D02*
X207240000Y-65562000D01*
X206190000Y-64512000D02*
X207240000Y-64512000D01*
%TO.C,R2*%
X191822000Y-111383578D02*
X191822000Y-110866422D01*
X193242000Y-111383578D02*
X193242000Y-110866422D01*
%TO.C,R1*%
X195378000Y-109430078D02*
X195378000Y-108912922D01*
X196798000Y-109430078D02*
X196798000Y-108912922D01*
%TO.C,J4*%
X199402000Y-85722000D02*
X208522000Y-85722000D01*
X208522000Y-85722000D02*
X208522000Y-106302000D01*
X208522000Y-106302000D02*
X199402000Y-106302000D01*
X199402000Y-106302000D02*
X199402000Y-85722000D01*
X199402000Y-93962000D02*
X200712000Y-93962000D01*
X200712000Y-93962000D02*
X200712000Y-87022000D01*
X200712000Y-87022000D02*
X207212000Y-87022000D01*
X207212000Y-87022000D02*
X207212000Y-105002000D01*
X207212000Y-105002000D02*
X200712000Y-105002000D01*
X200712000Y-105002000D02*
X200712000Y-98062000D01*
X200712000Y-98062000D02*
X200712000Y-98062000D01*
X200712000Y-98062000D02*
X199402000Y-98062000D01*
X199012000Y-90932000D02*
X198012000Y-90432000D01*
X198012000Y-90432000D02*
X198012000Y-91432000D01*
X198012000Y-91432000D02*
X199012000Y-90932000D01*
%TO.C,J3*%
X199402000Y-107566000D02*
X208522000Y-107566000D01*
X208522000Y-107566000D02*
X208522000Y-123066000D01*
X208522000Y-123066000D02*
X199402000Y-123066000D01*
X199402000Y-123066000D02*
X199402000Y-107566000D01*
X199402000Y-113266000D02*
X200712000Y-113266000D01*
X200712000Y-113266000D02*
X200712000Y-108866000D01*
X200712000Y-108866000D02*
X207212000Y-108866000D01*
X207212000Y-108866000D02*
X207212000Y-121766000D01*
X207212000Y-121766000D02*
X200712000Y-121766000D01*
X200712000Y-121766000D02*
X200712000Y-117366000D01*
X200712000Y-117366000D02*
X200712000Y-117366000D01*
X200712000Y-117366000D02*
X199402000Y-117366000D01*
X199012000Y-112776000D02*
X198012000Y-112276000D01*
X198012000Y-112276000D02*
X198012000Y-113276000D01*
X198012000Y-113276000D02*
X199012000Y-112776000D01*
%TO.C,D1*%
X197060000Y-115730000D02*
X197060000Y-123030000D01*
X191560000Y-115730000D02*
X191560000Y-123030000D01*
X191560000Y-123030000D02*
X192710000Y-123030000D01*
%TO.C,C5*%
X192146422Y-87428000D02*
X192663578Y-87428000D01*
X192146422Y-88848000D02*
X192663578Y-88848000D01*
%TO.C,C4*%
X192663578Y-92404000D02*
X192146422Y-92404000D01*
X192663578Y-90984000D02*
X192146422Y-90984000D01*
%TO.C,C3*%
X196552078Y-95960000D02*
X196034922Y-95960000D01*
X196552078Y-94540000D02*
X196034922Y-94540000D01*
%TO.C,C2*%
X192663578Y-95960000D02*
X192146422Y-95960000D01*
X192663578Y-94540000D02*
X192146422Y-94540000D01*
%TO.C,C1*%
X195378000Y-113240078D02*
X195378000Y-112722922D01*
X196798000Y-113240078D02*
X196798000Y-112722922D01*
%TO.C,U1*%
D12*
X198325880Y-102044404D02*
X199135404Y-102044404D01*
X199230642Y-101996785D01*
X199278261Y-101949166D01*
X199325880Y-101853928D01*
X199325880Y-101663452D01*
X199278261Y-101568214D01*
X199230642Y-101520595D01*
X199135404Y-101472976D01*
X198325880Y-101472976D01*
X199325880Y-100472976D02*
X199325880Y-101044404D01*
X199325880Y-100758690D02*
X198325880Y-100758690D01*
X198468738Y-100853928D01*
X198563976Y-100949166D01*
X198611595Y-101044404D01*
%TO.C,U2*%
X190079380Y-70738904D02*
X190888904Y-70738904D01*
X190984142Y-70691285D01*
X191031761Y-70643666D01*
X191079380Y-70548428D01*
X191079380Y-70357952D01*
X191031761Y-70262714D01*
X190984142Y-70215095D01*
X190888904Y-70167476D01*
X190079380Y-70167476D01*
X190174619Y-69738904D02*
X190127000Y-69691285D01*
X190079380Y-69596047D01*
X190079380Y-69357952D01*
X190127000Y-69262714D01*
X190174619Y-69215095D01*
X190269857Y-69167476D01*
X190365095Y-69167476D01*
X190507952Y-69215095D01*
X191079380Y-69786523D01*
X191079380Y-69167476D01*
X194628095Y-66678666D02*
X195104285Y-66678666D01*
X194532857Y-66964380D02*
X194866190Y-65964380D01*
X195199523Y-66964380D01*
X195532857Y-66297714D02*
X195532857Y-66964380D01*
X195532857Y-66392952D02*
X195580476Y-66345333D01*
X195675714Y-66297714D01*
X195818571Y-66297714D01*
X195913809Y-66345333D01*
X195961428Y-66440571D01*
X195961428Y-66964380D01*
X196294761Y-66297714D02*
X196675714Y-66297714D01*
X196437619Y-65964380D02*
X196437619Y-66821523D01*
X196485238Y-66916761D01*
X196580476Y-66964380D01*
X196675714Y-66964380D01*
X197390000Y-66916761D02*
X197294761Y-66964380D01*
X197104285Y-66964380D01*
X197009047Y-66916761D01*
X196961428Y-66821523D01*
X196961428Y-66440571D01*
X197009047Y-66345333D01*
X197104285Y-66297714D01*
X197294761Y-66297714D01*
X197390000Y-66345333D01*
X197437619Y-66440571D01*
X197437619Y-66535809D01*
X196961428Y-66631047D01*
X197866190Y-66297714D02*
X197866190Y-66964380D01*
X197866190Y-66392952D02*
X197913809Y-66345333D01*
X198009047Y-66297714D01*
X198151904Y-66297714D01*
X198247142Y-66345333D01*
X198294761Y-66440571D01*
X198294761Y-66964380D01*
X198770952Y-66297714D02*
X198770952Y-66964380D01*
X198770952Y-66392952D02*
X198818571Y-66345333D01*
X198913809Y-66297714D01*
X199056666Y-66297714D01*
X199151904Y-66345333D01*
X199199523Y-66440571D01*
X199199523Y-66964380D01*
X200104285Y-66964380D02*
X200104285Y-66440571D01*
X200056666Y-66345333D01*
X199961428Y-66297714D01*
X199770952Y-66297714D01*
X199675714Y-66345333D01*
X200104285Y-66916761D02*
X200009047Y-66964380D01*
X199770952Y-66964380D01*
X199675714Y-66916761D01*
X199628095Y-66821523D01*
X199628095Y-66726285D01*
X199675714Y-66631047D01*
X199770952Y-66583428D01*
X200009047Y-66583428D01*
X200104285Y-66535809D01*
X201294761Y-66678666D02*
X201770952Y-66678666D01*
X201199523Y-66964380D02*
X201532857Y-65964380D01*
X201866190Y-66964380D01*
X202199523Y-66964380D02*
X202199523Y-66297714D01*
X202199523Y-66488190D02*
X202247142Y-66392952D01*
X202294761Y-66345333D01*
X202390000Y-66297714D01*
X202485238Y-66297714D01*
X203199523Y-66916761D02*
X203104285Y-66964380D01*
X202913809Y-66964380D01*
X202818571Y-66916761D01*
X202770952Y-66821523D01*
X202770952Y-66440571D01*
X202818571Y-66345333D01*
X202913809Y-66297714D01*
X203104285Y-66297714D01*
X203199523Y-66345333D01*
X203247142Y-66440571D01*
X203247142Y-66535809D01*
X202770952Y-66631047D01*
X204104285Y-66964380D02*
X204104285Y-66440571D01*
X204056666Y-66345333D01*
X203961428Y-66297714D01*
X203770952Y-66297714D01*
X203675714Y-66345333D01*
X204104285Y-66916761D02*
X204009047Y-66964380D01*
X203770952Y-66964380D01*
X203675714Y-66916761D01*
X203628095Y-66821523D01*
X203628095Y-66726285D01*
X203675714Y-66631047D01*
X203770952Y-66583428D01*
X204009047Y-66583428D01*
X204104285Y-66535809D01*
%TO.C,R2*%
X191334380Y-111291666D02*
X190858190Y-111625000D01*
X191334380Y-111863095D02*
X190334380Y-111863095D01*
X190334380Y-111482142D01*
X190382000Y-111386904D01*
X190429619Y-111339285D01*
X190524857Y-111291666D01*
X190667714Y-111291666D01*
X190762952Y-111339285D01*
X190810571Y-111386904D01*
X190858190Y-111482142D01*
X190858190Y-111863095D01*
X190429619Y-110910714D02*
X190382000Y-110863095D01*
X190334380Y-110767857D01*
X190334380Y-110529761D01*
X190382000Y-110434523D01*
X190429619Y-110386904D01*
X190524857Y-110339285D01*
X190620095Y-110339285D01*
X190762952Y-110386904D01*
X191334380Y-110958333D01*
X191334380Y-110339285D01*
%TO.C,R1*%
X194890380Y-109338166D02*
X194414190Y-109671500D01*
X194890380Y-109909595D02*
X193890380Y-109909595D01*
X193890380Y-109528642D01*
X193938000Y-109433404D01*
X193985619Y-109385785D01*
X194080857Y-109338166D01*
X194223714Y-109338166D01*
X194318952Y-109385785D01*
X194366571Y-109433404D01*
X194414190Y-109528642D01*
X194414190Y-109909595D01*
X194890380Y-108385785D02*
X194890380Y-108957214D01*
X194890380Y-108671500D02*
X193890380Y-108671500D01*
X194033238Y-108766738D01*
X194128476Y-108861976D01*
X194176095Y-108957214D01*
%TO.C,J4*%
X197699380Y-86566333D02*
X198413666Y-86566333D01*
X198556523Y-86613952D01*
X198651761Y-86709190D01*
X198699380Y-86852047D01*
X198699380Y-86947285D01*
X198032714Y-85661571D02*
X198699380Y-85661571D01*
X197651761Y-85899666D02*
X198366047Y-86137761D01*
X198366047Y-85518714D01*
%TO.C,J3*%
X197572380Y-108537333D02*
X198286666Y-108537333D01*
X198429523Y-108584952D01*
X198524761Y-108680190D01*
X198572380Y-108823047D01*
X198572380Y-108918285D01*
X197572380Y-108156380D02*
X197572380Y-107537333D01*
X197953333Y-107870666D01*
X197953333Y-107727809D01*
X198000952Y-107632571D01*
X198048571Y-107584952D01*
X198143809Y-107537333D01*
X198381904Y-107537333D01*
X198477142Y-107584952D01*
X198524761Y-107632571D01*
X198572380Y-107727809D01*
X198572380Y-108013523D01*
X198524761Y-108108761D01*
X198477142Y-108156380D01*
%TO.C,D1*%
X191793904Y-115514380D02*
X191793904Y-114514380D01*
X192032000Y-114514380D01*
X192174857Y-114562000D01*
X192270095Y-114657238D01*
X192317714Y-114752476D01*
X192365333Y-114942952D01*
X192365333Y-115085809D01*
X192317714Y-115276285D01*
X192270095Y-115371523D01*
X192174857Y-115466761D01*
X192032000Y-115514380D01*
X191793904Y-115514380D01*
X193317714Y-115514380D02*
X192746285Y-115514380D01*
X193032000Y-115514380D02*
X193032000Y-114514380D01*
X192936761Y-114657238D01*
X192841523Y-114752476D01*
X192746285Y-114800095D01*
X196362380Y-114944285D02*
X196362380Y-115515714D01*
X196362380Y-115230000D02*
X195362380Y-115230000D01*
X195505238Y-115325238D01*
X195600476Y-115420476D01*
X195648095Y-115515714D01*
%TO.C,C5*%
X192238333Y-86845142D02*
X192190714Y-86892761D01*
X192047857Y-86940380D01*
X191952619Y-86940380D01*
X191809761Y-86892761D01*
X191714523Y-86797523D01*
X191666904Y-86702285D01*
X191619285Y-86511809D01*
X191619285Y-86368952D01*
X191666904Y-86178476D01*
X191714523Y-86083238D01*
X191809761Y-85988000D01*
X191952619Y-85940380D01*
X192047857Y-85940380D01*
X192190714Y-85988000D01*
X192238333Y-86035619D01*
X193143095Y-85940380D02*
X192666904Y-85940380D01*
X192619285Y-86416571D01*
X192666904Y-86368952D01*
X192762142Y-86321333D01*
X193000238Y-86321333D01*
X193095476Y-86368952D01*
X193143095Y-86416571D01*
X193190714Y-86511809D01*
X193190714Y-86749904D01*
X193143095Y-86845142D01*
X193095476Y-86892761D01*
X193000238Y-86940380D01*
X192762142Y-86940380D01*
X192666904Y-86892761D01*
X192619285Y-86845142D01*
%TO.C,C4*%
X192238333Y-90400142D02*
X192190714Y-90447761D01*
X192047857Y-90495380D01*
X191952619Y-90495380D01*
X191809761Y-90447761D01*
X191714523Y-90352523D01*
X191666904Y-90257285D01*
X191619285Y-90066809D01*
X191619285Y-89923952D01*
X191666904Y-89733476D01*
X191714523Y-89638238D01*
X191809761Y-89543000D01*
X191952619Y-89495380D01*
X192047857Y-89495380D01*
X192190714Y-89543000D01*
X192238333Y-89590619D01*
X193095476Y-89828714D02*
X193095476Y-90495380D01*
X192857380Y-89447761D02*
X192619285Y-90162047D01*
X193238333Y-90162047D01*
%TO.C,C3*%
X196126833Y-94083142D02*
X196079214Y-94130761D01*
X195936357Y-94178380D01*
X195841119Y-94178380D01*
X195698261Y-94130761D01*
X195603023Y-94035523D01*
X195555404Y-93940285D01*
X195507785Y-93749809D01*
X195507785Y-93606952D01*
X195555404Y-93416476D01*
X195603023Y-93321238D01*
X195698261Y-93226000D01*
X195841119Y-93178380D01*
X195936357Y-93178380D01*
X196079214Y-93226000D01*
X196126833Y-93273619D01*
X196460166Y-93178380D02*
X197079214Y-93178380D01*
X196745880Y-93559333D01*
X196888738Y-93559333D01*
X196983976Y-93606952D01*
X197031595Y-93654571D01*
X197079214Y-93749809D01*
X197079214Y-93987904D01*
X197031595Y-94083142D01*
X196983976Y-94130761D01*
X196888738Y-94178380D01*
X196603023Y-94178380D01*
X196507785Y-94130761D01*
X196460166Y-94083142D01*
%TO.C,C2*%
X192238333Y-94083142D02*
X192190714Y-94130761D01*
X192047857Y-94178380D01*
X191952619Y-94178380D01*
X191809761Y-94130761D01*
X191714523Y-94035523D01*
X191666904Y-93940285D01*
X191619285Y-93749809D01*
X191619285Y-93606952D01*
X191666904Y-93416476D01*
X191714523Y-93321238D01*
X191809761Y-93226000D01*
X191952619Y-93178380D01*
X192047857Y-93178380D01*
X192190714Y-93226000D01*
X192238333Y-93273619D01*
X192619285Y-93273619D02*
X192666904Y-93226000D01*
X192762142Y-93178380D01*
X193000238Y-93178380D01*
X193095476Y-93226000D01*
X193143095Y-93273619D01*
X193190714Y-93368857D01*
X193190714Y-93464095D01*
X193143095Y-93606952D01*
X192571666Y-94178380D01*
X193190714Y-94178380D01*
%TO.C,C1*%
X194795142Y-113148166D02*
X194842761Y-113195785D01*
X194890380Y-113338642D01*
X194890380Y-113433880D01*
X194842761Y-113576738D01*
X194747523Y-113671976D01*
X194652285Y-113719595D01*
X194461809Y-113767214D01*
X194318952Y-113767214D01*
X194128476Y-113719595D01*
X194033238Y-113671976D01*
X193938000Y-113576738D01*
X193890380Y-113433880D01*
X193890380Y-113338642D01*
X193938000Y-113195785D01*
X193985619Y-113148166D01*
X194890380Y-112195785D02*
X194890380Y-112767214D01*
X194890380Y-112481500D02*
X193890380Y-112481500D01*
X194033238Y-112576738D01*
X194128476Y-112671976D01*
X194176095Y-112767214D01*
%TD*%
M02*
