%TF.GenerationSoftware,KiCad,Pcbnew,(5.1.6-0)*%
%TF.CreationDate,2021-10-14T13:54:28-06:00*%
%TF.ProjectId,ESP32-S2-Mini,45535033-322d-4533-922d-4d696e692e6b,rev?*%
%TF.SameCoordinates,Original*%
%TF.FileFunction,Copper,L2,Bot*%
%TF.FilePolarity,Positive*%
%FSLAX46Y46*%
G04 Gerber Fmt 4.6, Leading zero omitted, Abs format (unit mm)*
G04 Created by KiCad (PCBNEW (5.1.6-0)) date 2021-10-14 13:54:28*
%MOMM*%
%LPD*%
G01*
G04 APERTURE LIST*
%TA.AperFunction,ComponentPad*%
%ADD10C,1.700000*%
%TD*%
%TA.AperFunction,ComponentPad*%
%ADD11O,1.700000X1.700000*%
%TD*%
%TA.AperFunction,ComponentPad*%
%ADD12R,1.700000X1.700000*%
%TD*%
%TA.AperFunction,ViaPad*%
%ADD13C,0.800000*%
%TD*%
%TA.AperFunction,Conductor*%
%ADD14C,0.250000*%
%TD*%
%TA.AperFunction,Conductor*%
%ADD15C,0.254000*%
%TD*%
G04 APERTURE END LIST*
D10*
%TO.P,J4,10*%
%TO.N,N/C*%
X205232000Y-101092000D03*
%TO.P,J4,8*%
%TO.N,/GPIO41*%
X205232000Y-98552000D03*
%TO.P,J4,6*%
%TO.N,/GPIO40*%
X205232000Y-96012000D03*
%TO.P,J4,4*%
%TO.N,/GPIO39*%
X205232000Y-93472000D03*
%TO.P,J4,2*%
%TO.N,/GPIO42*%
X205232000Y-90932000D03*
%TO.P,J4,9*%
%TO.N,GND*%
X202692000Y-101092000D03*
%TO.P,J4,7*%
X202692000Y-98552000D03*
%TO.P,J4,5*%
X202692000Y-96012000D03*
%TO.P,J4,3*%
X202692000Y-93472000D03*
%TO.P,J4,1*%
%TO.N,N/C*%
%TA.AperFunction,ComponentPad*%
G36*
G01*
X201842000Y-91532000D02*
X201842000Y-90332000D01*
G75*
G02*
X202092000Y-90082000I250000J0D01*
G01*
X203292000Y-90082000D01*
G75*
G02*
X203542000Y-90332000I0J-250000D01*
G01*
X203542000Y-91532000D01*
G75*
G02*
X203292000Y-91782000I-250000J0D01*
G01*
X202092000Y-91782000D01*
G75*
G02*
X201842000Y-91532000I0J250000D01*
G01*
G37*
%TD.AperFunction*%
%TD*%
%TO.P,J3,6*%
%TO.N,/GPIO0*%
X205232000Y-117856000D03*
%TO.P,J3,4*%
%TO.N,GND*%
X205232000Y-115316000D03*
%TO.P,J3,2*%
%TO.N,N/C*%
X205232000Y-112776000D03*
%TO.P,J3,5*%
%TO.N,/RX*%
X202692000Y-117856000D03*
%TO.P,J3,3*%
%TO.N,/TX*%
X202692000Y-115316000D03*
%TO.P,J3,1*%
%TO.N,/RESET*%
%TA.AperFunction,ComponentPad*%
G36*
G01*
X201842000Y-113376000D02*
X201842000Y-112176000D01*
G75*
G02*
X202092000Y-111926000I250000J0D01*
G01*
X203292000Y-111926000D01*
G75*
G02*
X203542000Y-112176000I0J-250000D01*
G01*
X203542000Y-113376000D01*
G75*
G02*
X203292000Y-113626000I-250000J0D01*
G01*
X202092000Y-113626000D01*
G75*
G02*
X201842000Y-113376000I0J250000D01*
G01*
G37*
%TD.AperFunction*%
%TD*%
D11*
%TO.P,J2,21*%
%TO.N,/GPIO18*%
X210820000Y-121920000D03*
%TO.P,J2,20*%
%TO.N,/GPIO19*%
X210820000Y-119380000D03*
%TO.P,J2,19*%
%TO.N,/GPIO20*%
X210820000Y-116840000D03*
%TO.P,J2,18*%
%TO.N,/GPIO21*%
X210820000Y-114300000D03*
%TO.P,J2,17*%
%TO.N,/GPIO26*%
X210820000Y-111760000D03*
%TO.P,J2,16*%
%TO.N,/GPIO33*%
X210820000Y-109220000D03*
%TO.P,J2,15*%
%TO.N,/GPIO34*%
X210820000Y-106680000D03*
%TO.P,J2,14*%
%TO.N,/GPIO35*%
X210820000Y-104140000D03*
%TO.P,J2,13*%
%TO.N,/GPIO36*%
X210820000Y-101600000D03*
%TO.P,J2,12*%
%TO.N,/GPIO37*%
X210820000Y-99060000D03*
%TO.P,J2,11*%
%TO.N,/GPIO38*%
X210820000Y-96520000D03*
%TO.P,J2,10*%
%TO.N,/GPIO39*%
X210820000Y-93980000D03*
%TO.P,J2,9*%
%TO.N,/GPIO40*%
X210820000Y-91440000D03*
%TO.P,J2,8*%
%TO.N,/GPIO41*%
X210820000Y-88900000D03*
%TO.P,J2,7*%
%TO.N,/GPIO42*%
X210820000Y-86360000D03*
%TO.P,J2,6*%
%TO.N,/TX*%
X210820000Y-83820000D03*
%TO.P,J2,5*%
%TO.N,/RX*%
X210820000Y-81280000D03*
%TO.P,J2,4*%
%TO.N,/GPIO45*%
X210820000Y-78740000D03*
%TO.P,J2,3*%
%TO.N,/GPIO46*%
X210820000Y-76200000D03*
%TO.P,J2,2*%
%TO.N,/RESET*%
X210820000Y-73660000D03*
D12*
%TO.P,J2,1*%
%TO.N,GND*%
X210820000Y-71120000D03*
%TD*%
D11*
%TO.P,J1,21*%
%TO.N,GND*%
X187960000Y-121920000D03*
%TO.P,J1,20*%
%TO.N,+5V*%
X187960000Y-119380000D03*
%TO.P,J1,19*%
%TO.N,/GPIO17*%
X187960000Y-116840000D03*
%TO.P,J1,18*%
%TO.N,/GPIO16*%
X187960000Y-114300000D03*
%TO.P,J1,17*%
%TO.N,/GPIO15*%
X187960000Y-111760000D03*
%TO.P,J1,16*%
%TO.N,/GPIO14*%
X187960000Y-109220000D03*
%TO.P,J1,15*%
%TO.N,/GPIO13*%
X187960000Y-106680000D03*
%TO.P,J1,14*%
%TO.N,/GPIO12*%
X187960000Y-104140000D03*
%TO.P,J1,13*%
%TO.N,/GPIO11*%
X187960000Y-101600000D03*
%TO.P,J1,12*%
%TO.N,/GPIO10*%
X187960000Y-99060000D03*
%TO.P,J1,11*%
%TO.N,/GPIO9*%
X187960000Y-96520000D03*
%TO.P,J1,10*%
%TO.N,/GPIO8*%
X187960000Y-93980000D03*
%TO.P,J1,9*%
%TO.N,/GPIO7*%
X187960000Y-91440000D03*
%TO.P,J1,8*%
%TO.N,/GPIO6*%
X187960000Y-88900000D03*
%TO.P,J1,7*%
%TO.N,/GPIO5*%
X187960000Y-86360000D03*
%TO.P,J1,6*%
%TO.N,/GPIO4*%
X187960000Y-83820000D03*
%TO.P,J1,5*%
%TO.N,/GPIO3*%
X187960000Y-81280000D03*
%TO.P,J1,4*%
%TO.N,/GPIO2*%
X187960000Y-78740000D03*
%TO.P,J1,3*%
%TO.N,/GPIO1*%
X187960000Y-76200000D03*
%TO.P,J1,2*%
%TO.N,/GPIO0*%
X187960000Y-73660000D03*
D12*
%TO.P,J1,1*%
%TO.N,+3V3*%
X187960000Y-71120000D03*
%TD*%
D13*
%TO.N,/RESET*%
X198056500Y-108902500D03*
%TO.N,GND*%
X208280000Y-69850000D03*
X191135000Y-121793000D03*
X197366011Y-115260041D03*
X201930000Y-73279000D03*
X201930000Y-82550000D03*
X191833500Y-85153500D03*
X202692012Y-88392000D03*
%TO.N,+3V3*%
X191067000Y-72712000D03*
X190055491Y-87640944D03*
%TO.N,/GPIO17*%
X196378990Y-87249000D03*
%TO.N,/GPIO16*%
X195915032Y-88819387D03*
%TO.N,/GPIO15*%
X195465021Y-90136662D03*
%TO.N,/GPIO14*%
X194727990Y-91694002D03*
%TO.N,/GPIO13*%
X193912979Y-90177030D03*
%TO.N,/GPIO12*%
X190119000Y-93218000D03*
X192913000Y-85852002D03*
%TO.N,/GPIO11*%
X195961000Y-82931000D03*
%TO.N,/GPIO10*%
X195071996Y-82042000D03*
%TO.N,/GPIO9*%
X194276543Y-81171233D03*
%TO.N,/GPIO8*%
X191225000Y-81407000D03*
%TO.N,/GPIO0*%
X196215000Y-81026000D03*
%TO.N,/GPIO35*%
X209296000Y-90805000D03*
%TO.N,/GPIO36*%
X206819502Y-96710500D03*
X204818114Y-82646386D03*
%TO.N,/GPIO37*%
X207285000Y-94869000D03*
X204724000Y-81470500D03*
%TO.N,/GPIO38*%
X204978000Y-88138000D03*
X204421171Y-80517443D03*
%TO.N,/GPIO39*%
X203200000Y-80645000D03*
%TO.N,/GPIO42*%
X207989116Y-89123149D03*
%TO.N,/TX*%
X208915000Y-104305994D03*
%TO.N,/RX*%
X206756000Y-105410000D03*
%TD*%
D14*
%TO.N,/RESET*%
X209111998Y-73660000D02*
X198056500Y-84715498D01*
X210820000Y-73660000D02*
X209111998Y-73660000D01*
X198056500Y-84715498D02*
X198056500Y-108902500D01*
%TO.N,+3V3*%
X191067000Y-72712000D02*
X190055491Y-73723509D01*
X190055491Y-73723509D02*
X190055491Y-87640944D01*
%TO.N,/GPIO17*%
X195653989Y-109146011D02*
X195653989Y-105950999D01*
X196640034Y-87510044D02*
X196378990Y-87249000D01*
X196640034Y-104964954D02*
X196640034Y-87510044D01*
X195653989Y-105950999D02*
X196640034Y-104964954D01*
X187960000Y-116840000D02*
X195653989Y-109146011D01*
%TO.N,/GPIO16*%
X196190022Y-89094377D02*
X195915032Y-88819387D01*
X196190022Y-104166389D02*
X196190022Y-89094377D01*
X195203978Y-105152433D02*
X196190022Y-104166389D01*
X195203978Y-107056022D02*
X195203978Y-105152433D01*
X187960000Y-114300000D02*
X195203978Y-107056022D01*
%TO.N,/GPIO15*%
X195707000Y-90378641D02*
X195465021Y-90136662D01*
X195707000Y-104013000D02*
X195707000Y-90378641D01*
X187960000Y-111760000D02*
X195707000Y-104013000D01*
%TO.N,/GPIO14*%
X187960000Y-109220000D02*
X194727990Y-102452010D01*
X194727990Y-102452010D02*
X194727990Y-91694002D01*
%TO.N,/GPIO13*%
X187960000Y-106680000D02*
X193912979Y-100727021D01*
X193912979Y-100727021D02*
X193912979Y-90177030D01*
%TO.N,/GPIO12*%
X191837944Y-91499056D02*
X191837944Y-86927058D01*
X190119000Y-93218000D02*
X191837944Y-91499056D01*
X191837944Y-86927058D02*
X192913000Y-85852002D01*
%TO.N,/GPIO11*%
X195561001Y-83330999D02*
X195561001Y-87456004D01*
X193187977Y-96372023D02*
X188809999Y-100750001D01*
X188809999Y-100750001D02*
X187960000Y-101600000D01*
X195961000Y-82931000D02*
X195561001Y-83330999D01*
X195561001Y-87456004D02*
X193187977Y-89829028D01*
X193187977Y-89829028D02*
X193187977Y-96372023D01*
%TO.N,/GPIO10*%
X195071996Y-87308598D02*
X195071996Y-82607685D01*
X195071996Y-82607685D02*
X195071996Y-82042000D01*
X192737966Y-94282034D02*
X192737966Y-89642628D01*
X187960000Y-99060000D02*
X192737966Y-94282034D01*
X192737966Y-89642628D02*
X195071996Y-87308598D01*
%TO.N,/GPIO9*%
X192287955Y-92192045D02*
X192287955Y-89456228D01*
X194276543Y-87467640D02*
X194276543Y-81736918D01*
X194276543Y-81736918D02*
X194276543Y-81171233D01*
X192287955Y-89456228D02*
X194276543Y-87467640D01*
X187960000Y-96520000D02*
X192287955Y-92192045D01*
%TO.N,/GPIO8*%
X190780501Y-91159499D02*
X187960000Y-93980000D01*
X190780501Y-81851499D02*
X190780501Y-91159499D01*
X191225000Y-81407000D02*
X190780501Y-81851499D01*
%TO.N,/GPIO0*%
X204056999Y-119031001D02*
X205232000Y-117856000D01*
X202127999Y-119031001D02*
X204056999Y-119031001D01*
X198628000Y-115531002D02*
X202127999Y-119031001D01*
X197104000Y-81915000D02*
X197104000Y-109347000D01*
X198628000Y-110871000D02*
X198628000Y-115531002D01*
X197104000Y-109347000D02*
X198628000Y-110871000D01*
X196215000Y-81026000D02*
X197104000Y-81915000D01*
%TO.N,/GPIO35*%
X209296000Y-102616000D02*
X209296000Y-90805000D01*
X210820000Y-104140000D02*
X209296000Y-102616000D01*
%TO.N,/GPIO36*%
X206419503Y-84247775D02*
X204818114Y-82646386D01*
X206419503Y-96310501D02*
X206419503Y-84247775D01*
X206819502Y-96710500D02*
X206419503Y-96310501D01*
%TO.N,/GPIO37*%
X207285000Y-94869000D02*
X206885001Y-94469001D01*
X206885001Y-83631501D02*
X204724000Y-81470500D01*
X206885001Y-94469001D02*
X206885001Y-83631501D01*
%TO.N,/GPIO38*%
X203650011Y-81288603D02*
X204421171Y-80517443D01*
X204978000Y-88138000D02*
X203650011Y-86810011D01*
X203650011Y-86810011D02*
X203650011Y-81288603D01*
%TO.N,/GPIO39*%
X205232000Y-93472000D02*
X205105000Y-93345000D01*
X203200000Y-86996411D02*
X204056999Y-87853410D01*
X203200000Y-80645000D02*
X203200000Y-86996411D01*
X204056999Y-92296999D02*
X205232000Y-93472000D01*
X204056999Y-87853410D02*
X204056999Y-92296999D01*
%TO.N,/GPIO40*%
X204056999Y-99116001D02*
X204056999Y-97187001D01*
X204667999Y-99727001D02*
X204056999Y-99116001D01*
X205895490Y-99727001D02*
X204667999Y-99727001D01*
X208570998Y-97051493D02*
X205895490Y-99727001D01*
X204056999Y-97187001D02*
X205232000Y-96012000D01*
X209740196Y-89729804D02*
X209153351Y-89729804D01*
X208570998Y-90312157D02*
X208570998Y-97051493D01*
X209153351Y-89729804D02*
X208570998Y-90312157D01*
X210820000Y-90809608D02*
X209740196Y-89729804D01*
X210820000Y-91440000D02*
X210820000Y-90809608D01*
%TO.N,/GPIO41*%
X208010001Y-90127584D02*
X208010001Y-96976080D01*
X210820000Y-88900000D02*
X209237585Y-88900000D01*
X209237585Y-88900000D02*
X208010001Y-90127584D01*
X206434081Y-98552000D02*
X205232000Y-98552000D01*
X208010001Y-96976080D02*
X206434081Y-98552000D01*
%TO.N,/GPIO42*%
X208056851Y-89123149D02*
X207989116Y-89123149D01*
X210820000Y-86360000D02*
X208056851Y-89123149D01*
%TO.N,/TX*%
X202692000Y-115316000D02*
X204056999Y-113951001D01*
X204056999Y-113951001D02*
X204056999Y-109163995D01*
X204056999Y-109163995D02*
X208915000Y-104305994D01*
%TO.N,/RX*%
X201516999Y-116680999D02*
X202692000Y-117856000D01*
X201516999Y-110649001D02*
X201516999Y-116680999D01*
X206756000Y-105410000D02*
X201516999Y-110649001D01*
%TD*%
D15*
%TO.N,GND*%
G36*
X212598000Y-123698000D02*
G01*
X186182000Y-123698000D01*
X186182000Y-122276890D01*
X186518524Y-122276890D01*
X186563175Y-122424099D01*
X186688359Y-122686920D01*
X186862412Y-122920269D01*
X187078645Y-123115178D01*
X187328748Y-123264157D01*
X187603109Y-123361481D01*
X187833000Y-123240814D01*
X187833000Y-122047000D01*
X188087000Y-122047000D01*
X188087000Y-123240814D01*
X188316891Y-123361481D01*
X188591252Y-123264157D01*
X188841355Y-123115178D01*
X189057588Y-122920269D01*
X189231641Y-122686920D01*
X189356825Y-122424099D01*
X189401476Y-122276890D01*
X189280155Y-122047000D01*
X188087000Y-122047000D01*
X187833000Y-122047000D01*
X186639845Y-122047000D01*
X186518524Y-122276890D01*
X186182000Y-122276890D01*
X186182000Y-70270000D01*
X186471928Y-70270000D01*
X186471928Y-71970000D01*
X186484188Y-72094482D01*
X186520498Y-72214180D01*
X186579463Y-72324494D01*
X186658815Y-72421185D01*
X186755506Y-72500537D01*
X186865820Y-72559502D01*
X186938380Y-72581513D01*
X186806525Y-72713368D01*
X186644010Y-72956589D01*
X186532068Y-73226842D01*
X186475000Y-73513740D01*
X186475000Y-73806260D01*
X186532068Y-74093158D01*
X186644010Y-74363411D01*
X186806525Y-74606632D01*
X187013368Y-74813475D01*
X187187760Y-74930000D01*
X187013368Y-75046525D01*
X186806525Y-75253368D01*
X186644010Y-75496589D01*
X186532068Y-75766842D01*
X186475000Y-76053740D01*
X186475000Y-76346260D01*
X186532068Y-76633158D01*
X186644010Y-76903411D01*
X186806525Y-77146632D01*
X187013368Y-77353475D01*
X187187760Y-77470000D01*
X187013368Y-77586525D01*
X186806525Y-77793368D01*
X186644010Y-78036589D01*
X186532068Y-78306842D01*
X186475000Y-78593740D01*
X186475000Y-78886260D01*
X186532068Y-79173158D01*
X186644010Y-79443411D01*
X186806525Y-79686632D01*
X187013368Y-79893475D01*
X187187760Y-80010000D01*
X187013368Y-80126525D01*
X186806525Y-80333368D01*
X186644010Y-80576589D01*
X186532068Y-80846842D01*
X186475000Y-81133740D01*
X186475000Y-81426260D01*
X186532068Y-81713158D01*
X186644010Y-81983411D01*
X186806525Y-82226632D01*
X187013368Y-82433475D01*
X187187760Y-82550000D01*
X187013368Y-82666525D01*
X186806525Y-82873368D01*
X186644010Y-83116589D01*
X186532068Y-83386842D01*
X186475000Y-83673740D01*
X186475000Y-83966260D01*
X186532068Y-84253158D01*
X186644010Y-84523411D01*
X186806525Y-84766632D01*
X187013368Y-84973475D01*
X187187760Y-85090000D01*
X187013368Y-85206525D01*
X186806525Y-85413368D01*
X186644010Y-85656589D01*
X186532068Y-85926842D01*
X186475000Y-86213740D01*
X186475000Y-86506260D01*
X186532068Y-86793158D01*
X186644010Y-87063411D01*
X186806525Y-87306632D01*
X187013368Y-87513475D01*
X187187760Y-87630000D01*
X187013368Y-87746525D01*
X186806525Y-87953368D01*
X186644010Y-88196589D01*
X186532068Y-88466842D01*
X186475000Y-88753740D01*
X186475000Y-89046260D01*
X186532068Y-89333158D01*
X186644010Y-89603411D01*
X186806525Y-89846632D01*
X187013368Y-90053475D01*
X187187760Y-90170000D01*
X187013368Y-90286525D01*
X186806525Y-90493368D01*
X186644010Y-90736589D01*
X186532068Y-91006842D01*
X186475000Y-91293740D01*
X186475000Y-91586260D01*
X186532068Y-91873158D01*
X186644010Y-92143411D01*
X186806525Y-92386632D01*
X187013368Y-92593475D01*
X187187760Y-92710000D01*
X187013368Y-92826525D01*
X186806525Y-93033368D01*
X186644010Y-93276589D01*
X186532068Y-93546842D01*
X186475000Y-93833740D01*
X186475000Y-94126260D01*
X186532068Y-94413158D01*
X186644010Y-94683411D01*
X186806525Y-94926632D01*
X187013368Y-95133475D01*
X187187760Y-95250000D01*
X187013368Y-95366525D01*
X186806525Y-95573368D01*
X186644010Y-95816589D01*
X186532068Y-96086842D01*
X186475000Y-96373740D01*
X186475000Y-96666260D01*
X186532068Y-96953158D01*
X186644010Y-97223411D01*
X186806525Y-97466632D01*
X187013368Y-97673475D01*
X187187760Y-97790000D01*
X187013368Y-97906525D01*
X186806525Y-98113368D01*
X186644010Y-98356589D01*
X186532068Y-98626842D01*
X186475000Y-98913740D01*
X186475000Y-99206260D01*
X186532068Y-99493158D01*
X186644010Y-99763411D01*
X186806525Y-100006632D01*
X187013368Y-100213475D01*
X187187760Y-100330000D01*
X187013368Y-100446525D01*
X186806525Y-100653368D01*
X186644010Y-100896589D01*
X186532068Y-101166842D01*
X186475000Y-101453740D01*
X186475000Y-101746260D01*
X186532068Y-102033158D01*
X186644010Y-102303411D01*
X186806525Y-102546632D01*
X187013368Y-102753475D01*
X187187760Y-102870000D01*
X187013368Y-102986525D01*
X186806525Y-103193368D01*
X186644010Y-103436589D01*
X186532068Y-103706842D01*
X186475000Y-103993740D01*
X186475000Y-104286260D01*
X186532068Y-104573158D01*
X186644010Y-104843411D01*
X186806525Y-105086632D01*
X187013368Y-105293475D01*
X187187760Y-105410000D01*
X187013368Y-105526525D01*
X186806525Y-105733368D01*
X186644010Y-105976589D01*
X186532068Y-106246842D01*
X186475000Y-106533740D01*
X186475000Y-106826260D01*
X186532068Y-107113158D01*
X186644010Y-107383411D01*
X186806525Y-107626632D01*
X187013368Y-107833475D01*
X187187760Y-107950000D01*
X187013368Y-108066525D01*
X186806525Y-108273368D01*
X186644010Y-108516589D01*
X186532068Y-108786842D01*
X186475000Y-109073740D01*
X186475000Y-109366260D01*
X186532068Y-109653158D01*
X186644010Y-109923411D01*
X186806525Y-110166632D01*
X187013368Y-110373475D01*
X187187760Y-110490000D01*
X187013368Y-110606525D01*
X186806525Y-110813368D01*
X186644010Y-111056589D01*
X186532068Y-111326842D01*
X186475000Y-111613740D01*
X186475000Y-111906260D01*
X186532068Y-112193158D01*
X186644010Y-112463411D01*
X186806525Y-112706632D01*
X187013368Y-112913475D01*
X187187760Y-113030000D01*
X187013368Y-113146525D01*
X186806525Y-113353368D01*
X186644010Y-113596589D01*
X186532068Y-113866842D01*
X186475000Y-114153740D01*
X186475000Y-114446260D01*
X186532068Y-114733158D01*
X186644010Y-115003411D01*
X186806525Y-115246632D01*
X187013368Y-115453475D01*
X187187760Y-115570000D01*
X187013368Y-115686525D01*
X186806525Y-115893368D01*
X186644010Y-116136589D01*
X186532068Y-116406842D01*
X186475000Y-116693740D01*
X186475000Y-116986260D01*
X186532068Y-117273158D01*
X186644010Y-117543411D01*
X186806525Y-117786632D01*
X187013368Y-117993475D01*
X187187760Y-118110000D01*
X187013368Y-118226525D01*
X186806525Y-118433368D01*
X186644010Y-118676589D01*
X186532068Y-118946842D01*
X186475000Y-119233740D01*
X186475000Y-119526260D01*
X186532068Y-119813158D01*
X186644010Y-120083411D01*
X186806525Y-120326632D01*
X187013368Y-120533475D01*
X187195534Y-120655195D01*
X187078645Y-120724822D01*
X186862412Y-120919731D01*
X186688359Y-121153080D01*
X186563175Y-121415901D01*
X186518524Y-121563110D01*
X186639845Y-121793000D01*
X187833000Y-121793000D01*
X187833000Y-121773000D01*
X188087000Y-121773000D01*
X188087000Y-121793000D01*
X189280155Y-121793000D01*
X189401476Y-121563110D01*
X189356825Y-121415901D01*
X189231641Y-121153080D01*
X189057588Y-120919731D01*
X188841355Y-120724822D01*
X188724466Y-120655195D01*
X188906632Y-120533475D01*
X189113475Y-120326632D01*
X189275990Y-120083411D01*
X189387932Y-119813158D01*
X189445000Y-119526260D01*
X189445000Y-119233740D01*
X189387932Y-118946842D01*
X189275990Y-118676589D01*
X189113475Y-118433368D01*
X188906632Y-118226525D01*
X188732240Y-118110000D01*
X188906632Y-117993475D01*
X189113475Y-117786632D01*
X189275990Y-117543411D01*
X189387932Y-117273158D01*
X189445000Y-116986260D01*
X189445000Y-116693740D01*
X189401209Y-116473592D01*
X196164993Y-109709809D01*
X196193990Y-109686012D01*
X196288963Y-109570287D01*
X196350903Y-109454407D01*
X196354998Y-109495986D01*
X196367583Y-109537474D01*
X196398454Y-109639246D01*
X196469026Y-109771276D01*
X196534912Y-109851557D01*
X196564000Y-109887001D01*
X196592998Y-109910799D01*
X197868000Y-111185803D01*
X197868001Y-115493670D01*
X197864324Y-115531002D01*
X197878998Y-115679987D01*
X197922454Y-115823248D01*
X197993026Y-115955278D01*
X198064201Y-116042004D01*
X198088000Y-116071003D01*
X198116998Y-116094801D01*
X201564200Y-119542004D01*
X201587998Y-119571002D01*
X201616996Y-119594800D01*
X201703722Y-119665975D01*
X201835752Y-119736547D01*
X201979013Y-119780004D01*
X202090666Y-119791001D01*
X202090675Y-119791001D01*
X202127998Y-119794677D01*
X202165321Y-119791001D01*
X204019677Y-119791001D01*
X204056999Y-119794677D01*
X204094321Y-119791001D01*
X204094332Y-119791001D01*
X204205985Y-119780004D01*
X204349246Y-119736547D01*
X204481275Y-119665975D01*
X204597000Y-119571002D01*
X204620803Y-119541998D01*
X204865592Y-119297209D01*
X205085740Y-119341000D01*
X205378260Y-119341000D01*
X205665158Y-119283932D01*
X205935411Y-119171990D01*
X206178632Y-119009475D01*
X206385475Y-118802632D01*
X206547990Y-118559411D01*
X206659932Y-118289158D01*
X206717000Y-118002260D01*
X206717000Y-117709740D01*
X206659932Y-117422842D01*
X206547990Y-117152589D01*
X206385475Y-116909368D01*
X206178632Y-116702525D01*
X206005271Y-116586689D01*
X206080792Y-116344397D01*
X205232000Y-115495605D01*
X204383208Y-116344397D01*
X204458729Y-116586689D01*
X204285368Y-116702525D01*
X204078525Y-116909368D01*
X203962000Y-117083760D01*
X203845475Y-116909368D01*
X203638632Y-116702525D01*
X203464240Y-116586000D01*
X203638632Y-116469475D01*
X203845475Y-116262632D01*
X203961311Y-116089271D01*
X204203603Y-116164792D01*
X205052395Y-115316000D01*
X205411605Y-115316000D01*
X206260397Y-116164792D01*
X206509472Y-116087157D01*
X206635371Y-115823117D01*
X206707339Y-115539589D01*
X206722611Y-115247469D01*
X206680599Y-114957981D01*
X206582919Y-114682253D01*
X206509472Y-114544843D01*
X206260397Y-114467208D01*
X205411605Y-115316000D01*
X205052395Y-115316000D01*
X205038253Y-115301858D01*
X205217858Y-115122253D01*
X205232000Y-115136395D01*
X206080792Y-114287603D01*
X206005271Y-114045311D01*
X206178632Y-113929475D01*
X206385475Y-113722632D01*
X206547990Y-113479411D01*
X206659932Y-113209158D01*
X206717000Y-112922260D01*
X206717000Y-112629740D01*
X206659932Y-112342842D01*
X206547990Y-112072589D01*
X206385475Y-111829368D01*
X206178632Y-111622525D01*
X205935411Y-111460010D01*
X205665158Y-111348068D01*
X205378260Y-111291000D01*
X205085740Y-111291000D01*
X204816999Y-111344456D01*
X204816999Y-109478796D01*
X208954802Y-105340994D01*
X209016939Y-105340994D01*
X209216898Y-105301220D01*
X209405256Y-105223199D01*
X209574774Y-105109931D01*
X209639107Y-105045598D01*
X209666525Y-105086632D01*
X209873368Y-105293475D01*
X210047760Y-105410000D01*
X209873368Y-105526525D01*
X209666525Y-105733368D01*
X209504010Y-105976589D01*
X209392068Y-106246842D01*
X209335000Y-106533740D01*
X209335000Y-106826260D01*
X209392068Y-107113158D01*
X209504010Y-107383411D01*
X209666525Y-107626632D01*
X209873368Y-107833475D01*
X210047760Y-107950000D01*
X209873368Y-108066525D01*
X209666525Y-108273368D01*
X209504010Y-108516589D01*
X209392068Y-108786842D01*
X209335000Y-109073740D01*
X209335000Y-109366260D01*
X209392068Y-109653158D01*
X209504010Y-109923411D01*
X209666525Y-110166632D01*
X209873368Y-110373475D01*
X210047760Y-110490000D01*
X209873368Y-110606525D01*
X209666525Y-110813368D01*
X209504010Y-111056589D01*
X209392068Y-111326842D01*
X209335000Y-111613740D01*
X209335000Y-111906260D01*
X209392068Y-112193158D01*
X209504010Y-112463411D01*
X209666525Y-112706632D01*
X209873368Y-112913475D01*
X210047760Y-113030000D01*
X209873368Y-113146525D01*
X209666525Y-113353368D01*
X209504010Y-113596589D01*
X209392068Y-113866842D01*
X209335000Y-114153740D01*
X209335000Y-114446260D01*
X209392068Y-114733158D01*
X209504010Y-115003411D01*
X209666525Y-115246632D01*
X209873368Y-115453475D01*
X210047760Y-115570000D01*
X209873368Y-115686525D01*
X209666525Y-115893368D01*
X209504010Y-116136589D01*
X209392068Y-116406842D01*
X209335000Y-116693740D01*
X209335000Y-116986260D01*
X209392068Y-117273158D01*
X209504010Y-117543411D01*
X209666525Y-117786632D01*
X209873368Y-117993475D01*
X210047760Y-118110000D01*
X209873368Y-118226525D01*
X209666525Y-118433368D01*
X209504010Y-118676589D01*
X209392068Y-118946842D01*
X209335000Y-119233740D01*
X209335000Y-119526260D01*
X209392068Y-119813158D01*
X209504010Y-120083411D01*
X209666525Y-120326632D01*
X209873368Y-120533475D01*
X210047760Y-120650000D01*
X209873368Y-120766525D01*
X209666525Y-120973368D01*
X209504010Y-121216589D01*
X209392068Y-121486842D01*
X209335000Y-121773740D01*
X209335000Y-122066260D01*
X209392068Y-122353158D01*
X209504010Y-122623411D01*
X209666525Y-122866632D01*
X209873368Y-123073475D01*
X210116589Y-123235990D01*
X210386842Y-123347932D01*
X210673740Y-123405000D01*
X210966260Y-123405000D01*
X211253158Y-123347932D01*
X211523411Y-123235990D01*
X211766632Y-123073475D01*
X211973475Y-122866632D01*
X212135990Y-122623411D01*
X212247932Y-122353158D01*
X212305000Y-122066260D01*
X212305000Y-121773740D01*
X212247932Y-121486842D01*
X212135990Y-121216589D01*
X211973475Y-120973368D01*
X211766632Y-120766525D01*
X211592240Y-120650000D01*
X211766632Y-120533475D01*
X211973475Y-120326632D01*
X212135990Y-120083411D01*
X212247932Y-119813158D01*
X212305000Y-119526260D01*
X212305000Y-119233740D01*
X212247932Y-118946842D01*
X212135990Y-118676589D01*
X211973475Y-118433368D01*
X211766632Y-118226525D01*
X211592240Y-118110000D01*
X211766632Y-117993475D01*
X211973475Y-117786632D01*
X212135990Y-117543411D01*
X212247932Y-117273158D01*
X212305000Y-116986260D01*
X212305000Y-116693740D01*
X212247932Y-116406842D01*
X212135990Y-116136589D01*
X211973475Y-115893368D01*
X211766632Y-115686525D01*
X211592240Y-115570000D01*
X211766632Y-115453475D01*
X211973475Y-115246632D01*
X212135990Y-115003411D01*
X212247932Y-114733158D01*
X212305000Y-114446260D01*
X212305000Y-114153740D01*
X212247932Y-113866842D01*
X212135990Y-113596589D01*
X211973475Y-113353368D01*
X211766632Y-113146525D01*
X211592240Y-113030000D01*
X211766632Y-112913475D01*
X211973475Y-112706632D01*
X212135990Y-112463411D01*
X212247932Y-112193158D01*
X212305000Y-111906260D01*
X212305000Y-111613740D01*
X212247932Y-111326842D01*
X212135990Y-111056589D01*
X211973475Y-110813368D01*
X211766632Y-110606525D01*
X211592240Y-110490000D01*
X211766632Y-110373475D01*
X211973475Y-110166632D01*
X212135990Y-109923411D01*
X212247932Y-109653158D01*
X212305000Y-109366260D01*
X212305000Y-109073740D01*
X212247932Y-108786842D01*
X212135990Y-108516589D01*
X211973475Y-108273368D01*
X211766632Y-108066525D01*
X211592240Y-107950000D01*
X211766632Y-107833475D01*
X211973475Y-107626632D01*
X212135990Y-107383411D01*
X212247932Y-107113158D01*
X212305000Y-106826260D01*
X212305000Y-106533740D01*
X212247932Y-106246842D01*
X212135990Y-105976589D01*
X211973475Y-105733368D01*
X211766632Y-105526525D01*
X211592240Y-105410000D01*
X211766632Y-105293475D01*
X211973475Y-105086632D01*
X212135990Y-104843411D01*
X212247932Y-104573158D01*
X212305000Y-104286260D01*
X212305000Y-103993740D01*
X212247932Y-103706842D01*
X212135990Y-103436589D01*
X211973475Y-103193368D01*
X211766632Y-102986525D01*
X211592240Y-102870000D01*
X211766632Y-102753475D01*
X211973475Y-102546632D01*
X212135990Y-102303411D01*
X212247932Y-102033158D01*
X212305000Y-101746260D01*
X212305000Y-101453740D01*
X212247932Y-101166842D01*
X212135990Y-100896589D01*
X211973475Y-100653368D01*
X211766632Y-100446525D01*
X211592240Y-100330000D01*
X211766632Y-100213475D01*
X211973475Y-100006632D01*
X212135990Y-99763411D01*
X212247932Y-99493158D01*
X212305000Y-99206260D01*
X212305000Y-98913740D01*
X212247932Y-98626842D01*
X212135990Y-98356589D01*
X211973475Y-98113368D01*
X211766632Y-97906525D01*
X211592240Y-97790000D01*
X211766632Y-97673475D01*
X211973475Y-97466632D01*
X212135990Y-97223411D01*
X212247932Y-96953158D01*
X212305000Y-96666260D01*
X212305000Y-96373740D01*
X212247932Y-96086842D01*
X212135990Y-95816589D01*
X211973475Y-95573368D01*
X211766632Y-95366525D01*
X211592240Y-95250000D01*
X211766632Y-95133475D01*
X211973475Y-94926632D01*
X212135990Y-94683411D01*
X212247932Y-94413158D01*
X212305000Y-94126260D01*
X212305000Y-93833740D01*
X212247932Y-93546842D01*
X212135990Y-93276589D01*
X211973475Y-93033368D01*
X211766632Y-92826525D01*
X211592240Y-92710000D01*
X211766632Y-92593475D01*
X211973475Y-92386632D01*
X212135990Y-92143411D01*
X212247932Y-91873158D01*
X212305000Y-91586260D01*
X212305000Y-91293740D01*
X212247932Y-91006842D01*
X212135990Y-90736589D01*
X211973475Y-90493368D01*
X211766632Y-90286525D01*
X211592240Y-90170000D01*
X211766632Y-90053475D01*
X211973475Y-89846632D01*
X212135990Y-89603411D01*
X212247932Y-89333158D01*
X212305000Y-89046260D01*
X212305000Y-88753740D01*
X212247932Y-88466842D01*
X212135990Y-88196589D01*
X211973475Y-87953368D01*
X211766632Y-87746525D01*
X211592240Y-87630000D01*
X211766632Y-87513475D01*
X211973475Y-87306632D01*
X212135990Y-87063411D01*
X212247932Y-86793158D01*
X212305000Y-86506260D01*
X212305000Y-86213740D01*
X212247932Y-85926842D01*
X212135990Y-85656589D01*
X211973475Y-85413368D01*
X211766632Y-85206525D01*
X211592240Y-85090000D01*
X211766632Y-84973475D01*
X211973475Y-84766632D01*
X212135990Y-84523411D01*
X212247932Y-84253158D01*
X212305000Y-83966260D01*
X212305000Y-83673740D01*
X212247932Y-83386842D01*
X212135990Y-83116589D01*
X211973475Y-82873368D01*
X211766632Y-82666525D01*
X211592240Y-82550000D01*
X211766632Y-82433475D01*
X211973475Y-82226632D01*
X212135990Y-81983411D01*
X212247932Y-81713158D01*
X212305000Y-81426260D01*
X212305000Y-81133740D01*
X212247932Y-80846842D01*
X212135990Y-80576589D01*
X211973475Y-80333368D01*
X211766632Y-80126525D01*
X211592240Y-80010000D01*
X211766632Y-79893475D01*
X211973475Y-79686632D01*
X212135990Y-79443411D01*
X212247932Y-79173158D01*
X212305000Y-78886260D01*
X212305000Y-78593740D01*
X212247932Y-78306842D01*
X212135990Y-78036589D01*
X211973475Y-77793368D01*
X211766632Y-77586525D01*
X211592240Y-77470000D01*
X211766632Y-77353475D01*
X211973475Y-77146632D01*
X212135990Y-76903411D01*
X212247932Y-76633158D01*
X212305000Y-76346260D01*
X212305000Y-76053740D01*
X212247932Y-75766842D01*
X212135990Y-75496589D01*
X211973475Y-75253368D01*
X211766632Y-75046525D01*
X211592240Y-74930000D01*
X211766632Y-74813475D01*
X211973475Y-74606632D01*
X212135990Y-74363411D01*
X212247932Y-74093158D01*
X212305000Y-73806260D01*
X212305000Y-73513740D01*
X212247932Y-73226842D01*
X212135990Y-72956589D01*
X211973475Y-72713368D01*
X211841620Y-72581513D01*
X211914180Y-72559502D01*
X212024494Y-72500537D01*
X212121185Y-72421185D01*
X212200537Y-72324494D01*
X212259502Y-72214180D01*
X212295812Y-72094482D01*
X212308072Y-71970000D01*
X212305000Y-71405750D01*
X212146250Y-71247000D01*
X210947000Y-71247000D01*
X210947000Y-71267000D01*
X210693000Y-71267000D01*
X210693000Y-71247000D01*
X209493750Y-71247000D01*
X209335000Y-71405750D01*
X209331928Y-71970000D01*
X209344188Y-72094482D01*
X209380498Y-72214180D01*
X209439463Y-72324494D01*
X209518815Y-72421185D01*
X209615506Y-72500537D01*
X209725820Y-72559502D01*
X209798380Y-72581513D01*
X209666525Y-72713368D01*
X209541822Y-72900000D01*
X209149320Y-72900000D01*
X209111997Y-72896324D01*
X209074674Y-72900000D01*
X209074665Y-72900000D01*
X208963012Y-72910997D01*
X208819751Y-72954454D01*
X208687722Y-73025026D01*
X208571997Y-73119999D01*
X208548199Y-73148997D01*
X197864000Y-83833197D01*
X197864000Y-81952323D01*
X197867676Y-81915000D01*
X197864000Y-81877677D01*
X197864000Y-81877667D01*
X197853003Y-81766014D01*
X197809546Y-81622753D01*
X197738974Y-81490724D01*
X197644001Y-81374999D01*
X197615004Y-81351202D01*
X197250000Y-80986198D01*
X197250000Y-80924061D01*
X197210226Y-80724102D01*
X197132205Y-80535744D01*
X197018937Y-80366226D01*
X196874774Y-80222063D01*
X196705256Y-80108795D01*
X196516898Y-80030774D01*
X196316939Y-79991000D01*
X196113061Y-79991000D01*
X195913102Y-80030774D01*
X195724744Y-80108795D01*
X195555226Y-80222063D01*
X195411063Y-80366226D01*
X195297795Y-80535744D01*
X195219774Y-80724102D01*
X195217126Y-80737416D01*
X195193748Y-80680977D01*
X195080480Y-80511459D01*
X194936317Y-80367296D01*
X194766799Y-80254028D01*
X194578441Y-80176007D01*
X194378482Y-80136233D01*
X194174604Y-80136233D01*
X193974645Y-80176007D01*
X193786287Y-80254028D01*
X193616769Y-80367296D01*
X193472606Y-80511459D01*
X193359338Y-80680977D01*
X193281317Y-80869335D01*
X193241543Y-81069294D01*
X193241543Y-81273172D01*
X193281317Y-81473131D01*
X193359338Y-81661489D01*
X193472606Y-81831007D01*
X193516544Y-81874945D01*
X193516543Y-85010493D01*
X193403256Y-84934797D01*
X193214898Y-84856776D01*
X193014939Y-84817002D01*
X192811061Y-84817002D01*
X192611102Y-84856776D01*
X192422744Y-84934797D01*
X192253226Y-85048065D01*
X192109063Y-85192228D01*
X191995795Y-85361746D01*
X191917774Y-85550104D01*
X191878000Y-85750063D01*
X191878000Y-85812200D01*
X191540501Y-86149700D01*
X191540501Y-82396591D01*
X191715256Y-82324205D01*
X191884774Y-82210937D01*
X192028937Y-82066774D01*
X192142205Y-81897256D01*
X192220226Y-81708898D01*
X192260000Y-81508939D01*
X192260000Y-81305061D01*
X192220226Y-81105102D01*
X192142205Y-80916744D01*
X192028937Y-80747226D01*
X191884774Y-80603063D01*
X191715256Y-80489795D01*
X191526898Y-80411774D01*
X191326939Y-80372000D01*
X191123061Y-80372000D01*
X190923102Y-80411774D01*
X190815491Y-80456348D01*
X190815491Y-74038310D01*
X191106802Y-73747000D01*
X191168939Y-73747000D01*
X191368898Y-73707226D01*
X191557256Y-73629205D01*
X191726774Y-73515937D01*
X191870937Y-73371774D01*
X191984205Y-73202256D01*
X192062226Y-73013898D01*
X192102000Y-72813939D01*
X192102000Y-72610061D01*
X192062226Y-72410102D01*
X191984205Y-72221744D01*
X191870937Y-72052226D01*
X191726774Y-71908063D01*
X191557256Y-71794795D01*
X191368898Y-71716774D01*
X191168939Y-71677000D01*
X190965061Y-71677000D01*
X190765102Y-71716774D01*
X190576744Y-71794795D01*
X190407226Y-71908063D01*
X190263063Y-72052226D01*
X190149795Y-72221744D01*
X190071774Y-72410102D01*
X190032000Y-72610061D01*
X190032000Y-72672198D01*
X189544493Y-73159705D01*
X189515490Y-73183508D01*
X189483078Y-73223003D01*
X189420517Y-73299233D01*
X189407264Y-73324028D01*
X189387932Y-73226842D01*
X189275990Y-72956589D01*
X189113475Y-72713368D01*
X188981620Y-72581513D01*
X189054180Y-72559502D01*
X189164494Y-72500537D01*
X189261185Y-72421185D01*
X189340537Y-72324494D01*
X189399502Y-72214180D01*
X189435812Y-72094482D01*
X189448072Y-71970000D01*
X189448072Y-70270000D01*
X209331928Y-70270000D01*
X209335000Y-70834250D01*
X209493750Y-70993000D01*
X210693000Y-70993000D01*
X210693000Y-69793750D01*
X210947000Y-69793750D01*
X210947000Y-70993000D01*
X212146250Y-70993000D01*
X212305000Y-70834250D01*
X212308072Y-70270000D01*
X212295812Y-70145518D01*
X212259502Y-70025820D01*
X212200537Y-69915506D01*
X212121185Y-69818815D01*
X212024494Y-69739463D01*
X211914180Y-69680498D01*
X211794482Y-69644188D01*
X211670000Y-69631928D01*
X211105750Y-69635000D01*
X210947000Y-69793750D01*
X210693000Y-69793750D01*
X210534250Y-69635000D01*
X209970000Y-69631928D01*
X209845518Y-69644188D01*
X209725820Y-69680498D01*
X209615506Y-69739463D01*
X209518815Y-69818815D01*
X209439463Y-69915506D01*
X209380498Y-70025820D01*
X209344188Y-70145518D01*
X209331928Y-70270000D01*
X189448072Y-70270000D01*
X189435812Y-70145518D01*
X189399502Y-70025820D01*
X189340537Y-69915506D01*
X189261185Y-69818815D01*
X189164494Y-69739463D01*
X189054180Y-69680498D01*
X188934482Y-69644188D01*
X188810000Y-69631928D01*
X187110000Y-69631928D01*
X186985518Y-69644188D01*
X186865820Y-69680498D01*
X186755506Y-69739463D01*
X186658815Y-69818815D01*
X186579463Y-69915506D01*
X186520498Y-70025820D01*
X186484188Y-70145518D01*
X186471928Y-70270000D01*
X186182000Y-70270000D01*
X186182000Y-69342000D01*
X212598000Y-69342000D01*
X212598000Y-123698000D01*
G37*
X212598000Y-123698000D02*
X186182000Y-123698000D01*
X186182000Y-122276890D01*
X186518524Y-122276890D01*
X186563175Y-122424099D01*
X186688359Y-122686920D01*
X186862412Y-122920269D01*
X187078645Y-123115178D01*
X187328748Y-123264157D01*
X187603109Y-123361481D01*
X187833000Y-123240814D01*
X187833000Y-122047000D01*
X188087000Y-122047000D01*
X188087000Y-123240814D01*
X188316891Y-123361481D01*
X188591252Y-123264157D01*
X188841355Y-123115178D01*
X189057588Y-122920269D01*
X189231641Y-122686920D01*
X189356825Y-122424099D01*
X189401476Y-122276890D01*
X189280155Y-122047000D01*
X188087000Y-122047000D01*
X187833000Y-122047000D01*
X186639845Y-122047000D01*
X186518524Y-122276890D01*
X186182000Y-122276890D01*
X186182000Y-70270000D01*
X186471928Y-70270000D01*
X186471928Y-71970000D01*
X186484188Y-72094482D01*
X186520498Y-72214180D01*
X186579463Y-72324494D01*
X186658815Y-72421185D01*
X186755506Y-72500537D01*
X186865820Y-72559502D01*
X186938380Y-72581513D01*
X186806525Y-72713368D01*
X186644010Y-72956589D01*
X186532068Y-73226842D01*
X186475000Y-73513740D01*
X186475000Y-73806260D01*
X186532068Y-74093158D01*
X186644010Y-74363411D01*
X186806525Y-74606632D01*
X187013368Y-74813475D01*
X187187760Y-74930000D01*
X187013368Y-75046525D01*
X186806525Y-75253368D01*
X186644010Y-75496589D01*
X186532068Y-75766842D01*
X186475000Y-76053740D01*
X186475000Y-76346260D01*
X186532068Y-76633158D01*
X186644010Y-76903411D01*
X186806525Y-77146632D01*
X187013368Y-77353475D01*
X187187760Y-77470000D01*
X187013368Y-77586525D01*
X186806525Y-77793368D01*
X186644010Y-78036589D01*
X186532068Y-78306842D01*
X186475000Y-78593740D01*
X186475000Y-78886260D01*
X186532068Y-79173158D01*
X186644010Y-79443411D01*
X186806525Y-79686632D01*
X187013368Y-79893475D01*
X187187760Y-80010000D01*
X187013368Y-80126525D01*
X186806525Y-80333368D01*
X186644010Y-80576589D01*
X186532068Y-80846842D01*
X186475000Y-81133740D01*
X186475000Y-81426260D01*
X186532068Y-81713158D01*
X186644010Y-81983411D01*
X186806525Y-82226632D01*
X187013368Y-82433475D01*
X187187760Y-82550000D01*
X187013368Y-82666525D01*
X186806525Y-82873368D01*
X186644010Y-83116589D01*
X186532068Y-83386842D01*
X186475000Y-83673740D01*
X186475000Y-83966260D01*
X186532068Y-84253158D01*
X186644010Y-84523411D01*
X186806525Y-84766632D01*
X187013368Y-84973475D01*
X187187760Y-85090000D01*
X187013368Y-85206525D01*
X186806525Y-85413368D01*
X186644010Y-85656589D01*
X186532068Y-85926842D01*
X186475000Y-86213740D01*
X186475000Y-86506260D01*
X186532068Y-86793158D01*
X186644010Y-87063411D01*
X186806525Y-87306632D01*
X187013368Y-87513475D01*
X187187760Y-87630000D01*
X187013368Y-87746525D01*
X186806525Y-87953368D01*
X186644010Y-88196589D01*
X186532068Y-88466842D01*
X186475000Y-88753740D01*
X186475000Y-89046260D01*
X186532068Y-89333158D01*
X186644010Y-89603411D01*
X186806525Y-89846632D01*
X187013368Y-90053475D01*
X187187760Y-90170000D01*
X187013368Y-90286525D01*
X186806525Y-90493368D01*
X186644010Y-90736589D01*
X186532068Y-91006842D01*
X186475000Y-91293740D01*
X186475000Y-91586260D01*
X186532068Y-91873158D01*
X186644010Y-92143411D01*
X186806525Y-92386632D01*
X187013368Y-92593475D01*
X187187760Y-92710000D01*
X187013368Y-92826525D01*
X186806525Y-93033368D01*
X186644010Y-93276589D01*
X186532068Y-93546842D01*
X186475000Y-93833740D01*
X186475000Y-94126260D01*
X186532068Y-94413158D01*
X186644010Y-94683411D01*
X186806525Y-94926632D01*
X187013368Y-95133475D01*
X187187760Y-95250000D01*
X187013368Y-95366525D01*
X186806525Y-95573368D01*
X186644010Y-95816589D01*
X186532068Y-96086842D01*
X186475000Y-96373740D01*
X186475000Y-96666260D01*
X186532068Y-96953158D01*
X186644010Y-97223411D01*
X186806525Y-97466632D01*
X187013368Y-97673475D01*
X187187760Y-97790000D01*
X187013368Y-97906525D01*
X186806525Y-98113368D01*
X186644010Y-98356589D01*
X186532068Y-98626842D01*
X186475000Y-98913740D01*
X186475000Y-99206260D01*
X186532068Y-99493158D01*
X186644010Y-99763411D01*
X186806525Y-100006632D01*
X187013368Y-100213475D01*
X187187760Y-100330000D01*
X187013368Y-100446525D01*
X186806525Y-100653368D01*
X186644010Y-100896589D01*
X186532068Y-101166842D01*
X186475000Y-101453740D01*
X186475000Y-101746260D01*
X186532068Y-102033158D01*
X186644010Y-102303411D01*
X186806525Y-102546632D01*
X187013368Y-102753475D01*
X187187760Y-102870000D01*
X187013368Y-102986525D01*
X186806525Y-103193368D01*
X186644010Y-103436589D01*
X186532068Y-103706842D01*
X186475000Y-103993740D01*
X186475000Y-104286260D01*
X186532068Y-104573158D01*
X186644010Y-104843411D01*
X186806525Y-105086632D01*
X187013368Y-105293475D01*
X187187760Y-105410000D01*
X187013368Y-105526525D01*
X186806525Y-105733368D01*
X186644010Y-105976589D01*
X186532068Y-106246842D01*
X186475000Y-106533740D01*
X186475000Y-106826260D01*
X186532068Y-107113158D01*
X186644010Y-107383411D01*
X186806525Y-107626632D01*
X187013368Y-107833475D01*
X187187760Y-107950000D01*
X187013368Y-108066525D01*
X186806525Y-108273368D01*
X186644010Y-108516589D01*
X186532068Y-108786842D01*
X186475000Y-109073740D01*
X186475000Y-109366260D01*
X186532068Y-109653158D01*
X186644010Y-109923411D01*
X186806525Y-110166632D01*
X187013368Y-110373475D01*
X187187760Y-110490000D01*
X187013368Y-110606525D01*
X186806525Y-110813368D01*
X186644010Y-111056589D01*
X186532068Y-111326842D01*
X186475000Y-111613740D01*
X186475000Y-111906260D01*
X186532068Y-112193158D01*
X186644010Y-112463411D01*
X186806525Y-112706632D01*
X187013368Y-112913475D01*
X187187760Y-113030000D01*
X187013368Y-113146525D01*
X186806525Y-113353368D01*
X186644010Y-113596589D01*
X186532068Y-113866842D01*
X186475000Y-114153740D01*
X186475000Y-114446260D01*
X186532068Y-114733158D01*
X186644010Y-115003411D01*
X186806525Y-115246632D01*
X187013368Y-115453475D01*
X187187760Y-115570000D01*
X187013368Y-115686525D01*
X186806525Y-115893368D01*
X186644010Y-116136589D01*
X186532068Y-116406842D01*
X186475000Y-116693740D01*
X186475000Y-116986260D01*
X186532068Y-117273158D01*
X186644010Y-117543411D01*
X186806525Y-117786632D01*
X187013368Y-117993475D01*
X187187760Y-118110000D01*
X187013368Y-118226525D01*
X186806525Y-118433368D01*
X186644010Y-118676589D01*
X186532068Y-118946842D01*
X186475000Y-119233740D01*
X186475000Y-119526260D01*
X186532068Y-119813158D01*
X186644010Y-120083411D01*
X186806525Y-120326632D01*
X187013368Y-120533475D01*
X187195534Y-120655195D01*
X187078645Y-120724822D01*
X186862412Y-120919731D01*
X186688359Y-121153080D01*
X186563175Y-121415901D01*
X186518524Y-121563110D01*
X186639845Y-121793000D01*
X187833000Y-121793000D01*
X187833000Y-121773000D01*
X188087000Y-121773000D01*
X188087000Y-121793000D01*
X189280155Y-121793000D01*
X189401476Y-121563110D01*
X189356825Y-121415901D01*
X189231641Y-121153080D01*
X189057588Y-120919731D01*
X188841355Y-120724822D01*
X188724466Y-120655195D01*
X188906632Y-120533475D01*
X189113475Y-120326632D01*
X189275990Y-120083411D01*
X189387932Y-119813158D01*
X189445000Y-119526260D01*
X189445000Y-119233740D01*
X189387932Y-118946842D01*
X189275990Y-118676589D01*
X189113475Y-118433368D01*
X188906632Y-118226525D01*
X188732240Y-118110000D01*
X188906632Y-117993475D01*
X189113475Y-117786632D01*
X189275990Y-117543411D01*
X189387932Y-117273158D01*
X189445000Y-116986260D01*
X189445000Y-116693740D01*
X189401209Y-116473592D01*
X196164993Y-109709809D01*
X196193990Y-109686012D01*
X196288963Y-109570287D01*
X196350903Y-109454407D01*
X196354998Y-109495986D01*
X196367583Y-109537474D01*
X196398454Y-109639246D01*
X196469026Y-109771276D01*
X196534912Y-109851557D01*
X196564000Y-109887001D01*
X196592998Y-109910799D01*
X197868000Y-111185803D01*
X197868001Y-115493670D01*
X197864324Y-115531002D01*
X197878998Y-115679987D01*
X197922454Y-115823248D01*
X197993026Y-115955278D01*
X198064201Y-116042004D01*
X198088000Y-116071003D01*
X198116998Y-116094801D01*
X201564200Y-119542004D01*
X201587998Y-119571002D01*
X201616996Y-119594800D01*
X201703722Y-119665975D01*
X201835752Y-119736547D01*
X201979013Y-119780004D01*
X202090666Y-119791001D01*
X202090675Y-119791001D01*
X202127998Y-119794677D01*
X202165321Y-119791001D01*
X204019677Y-119791001D01*
X204056999Y-119794677D01*
X204094321Y-119791001D01*
X204094332Y-119791001D01*
X204205985Y-119780004D01*
X204349246Y-119736547D01*
X204481275Y-119665975D01*
X204597000Y-119571002D01*
X204620803Y-119541998D01*
X204865592Y-119297209D01*
X205085740Y-119341000D01*
X205378260Y-119341000D01*
X205665158Y-119283932D01*
X205935411Y-119171990D01*
X206178632Y-119009475D01*
X206385475Y-118802632D01*
X206547990Y-118559411D01*
X206659932Y-118289158D01*
X206717000Y-118002260D01*
X206717000Y-117709740D01*
X206659932Y-117422842D01*
X206547990Y-117152589D01*
X206385475Y-116909368D01*
X206178632Y-116702525D01*
X206005271Y-116586689D01*
X206080792Y-116344397D01*
X205232000Y-115495605D01*
X204383208Y-116344397D01*
X204458729Y-116586689D01*
X204285368Y-116702525D01*
X204078525Y-116909368D01*
X203962000Y-117083760D01*
X203845475Y-116909368D01*
X203638632Y-116702525D01*
X203464240Y-116586000D01*
X203638632Y-116469475D01*
X203845475Y-116262632D01*
X203961311Y-116089271D01*
X204203603Y-116164792D01*
X205052395Y-115316000D01*
X205411605Y-115316000D01*
X206260397Y-116164792D01*
X206509472Y-116087157D01*
X206635371Y-115823117D01*
X206707339Y-115539589D01*
X206722611Y-115247469D01*
X206680599Y-114957981D01*
X206582919Y-114682253D01*
X206509472Y-114544843D01*
X206260397Y-114467208D01*
X205411605Y-115316000D01*
X205052395Y-115316000D01*
X205038253Y-115301858D01*
X205217858Y-115122253D01*
X205232000Y-115136395D01*
X206080792Y-114287603D01*
X206005271Y-114045311D01*
X206178632Y-113929475D01*
X206385475Y-113722632D01*
X206547990Y-113479411D01*
X206659932Y-113209158D01*
X206717000Y-112922260D01*
X206717000Y-112629740D01*
X206659932Y-112342842D01*
X206547990Y-112072589D01*
X206385475Y-111829368D01*
X206178632Y-111622525D01*
X205935411Y-111460010D01*
X205665158Y-111348068D01*
X205378260Y-111291000D01*
X205085740Y-111291000D01*
X204816999Y-111344456D01*
X204816999Y-109478796D01*
X208954802Y-105340994D01*
X209016939Y-105340994D01*
X209216898Y-105301220D01*
X209405256Y-105223199D01*
X209574774Y-105109931D01*
X209639107Y-105045598D01*
X209666525Y-105086632D01*
X209873368Y-105293475D01*
X210047760Y-105410000D01*
X209873368Y-105526525D01*
X209666525Y-105733368D01*
X209504010Y-105976589D01*
X209392068Y-106246842D01*
X209335000Y-106533740D01*
X209335000Y-106826260D01*
X209392068Y-107113158D01*
X209504010Y-107383411D01*
X209666525Y-107626632D01*
X209873368Y-107833475D01*
X210047760Y-107950000D01*
X209873368Y-108066525D01*
X209666525Y-108273368D01*
X209504010Y-108516589D01*
X209392068Y-108786842D01*
X209335000Y-109073740D01*
X209335000Y-109366260D01*
X209392068Y-109653158D01*
X209504010Y-109923411D01*
X209666525Y-110166632D01*
X209873368Y-110373475D01*
X210047760Y-110490000D01*
X209873368Y-110606525D01*
X209666525Y-110813368D01*
X209504010Y-111056589D01*
X209392068Y-111326842D01*
X209335000Y-111613740D01*
X209335000Y-111906260D01*
X209392068Y-112193158D01*
X209504010Y-112463411D01*
X209666525Y-112706632D01*
X209873368Y-112913475D01*
X210047760Y-113030000D01*
X209873368Y-113146525D01*
X209666525Y-113353368D01*
X209504010Y-113596589D01*
X209392068Y-113866842D01*
X209335000Y-114153740D01*
X209335000Y-114446260D01*
X209392068Y-114733158D01*
X209504010Y-115003411D01*
X209666525Y-115246632D01*
X209873368Y-115453475D01*
X210047760Y-115570000D01*
X209873368Y-115686525D01*
X209666525Y-115893368D01*
X209504010Y-116136589D01*
X209392068Y-116406842D01*
X209335000Y-116693740D01*
X209335000Y-116986260D01*
X209392068Y-117273158D01*
X209504010Y-117543411D01*
X209666525Y-117786632D01*
X209873368Y-117993475D01*
X210047760Y-118110000D01*
X209873368Y-118226525D01*
X209666525Y-118433368D01*
X209504010Y-118676589D01*
X209392068Y-118946842D01*
X209335000Y-119233740D01*
X209335000Y-119526260D01*
X209392068Y-119813158D01*
X209504010Y-120083411D01*
X209666525Y-120326632D01*
X209873368Y-120533475D01*
X210047760Y-120650000D01*
X209873368Y-120766525D01*
X209666525Y-120973368D01*
X209504010Y-121216589D01*
X209392068Y-121486842D01*
X209335000Y-121773740D01*
X209335000Y-122066260D01*
X209392068Y-122353158D01*
X209504010Y-122623411D01*
X209666525Y-122866632D01*
X209873368Y-123073475D01*
X210116589Y-123235990D01*
X210386842Y-123347932D01*
X210673740Y-123405000D01*
X210966260Y-123405000D01*
X211253158Y-123347932D01*
X211523411Y-123235990D01*
X211766632Y-123073475D01*
X211973475Y-122866632D01*
X212135990Y-122623411D01*
X212247932Y-122353158D01*
X212305000Y-122066260D01*
X212305000Y-121773740D01*
X212247932Y-121486842D01*
X212135990Y-121216589D01*
X211973475Y-120973368D01*
X211766632Y-120766525D01*
X211592240Y-120650000D01*
X211766632Y-120533475D01*
X211973475Y-120326632D01*
X212135990Y-120083411D01*
X212247932Y-119813158D01*
X212305000Y-119526260D01*
X212305000Y-119233740D01*
X212247932Y-118946842D01*
X212135990Y-118676589D01*
X211973475Y-118433368D01*
X211766632Y-118226525D01*
X211592240Y-118110000D01*
X211766632Y-117993475D01*
X211973475Y-117786632D01*
X212135990Y-117543411D01*
X212247932Y-117273158D01*
X212305000Y-116986260D01*
X212305000Y-116693740D01*
X212247932Y-116406842D01*
X212135990Y-116136589D01*
X211973475Y-115893368D01*
X211766632Y-115686525D01*
X211592240Y-115570000D01*
X211766632Y-115453475D01*
X211973475Y-115246632D01*
X212135990Y-115003411D01*
X212247932Y-114733158D01*
X212305000Y-114446260D01*
X212305000Y-114153740D01*
X212247932Y-113866842D01*
X212135990Y-113596589D01*
X211973475Y-113353368D01*
X211766632Y-113146525D01*
X211592240Y-113030000D01*
X211766632Y-112913475D01*
X211973475Y-112706632D01*
X212135990Y-112463411D01*
X212247932Y-112193158D01*
X212305000Y-111906260D01*
X212305000Y-111613740D01*
X212247932Y-111326842D01*
X212135990Y-111056589D01*
X211973475Y-110813368D01*
X211766632Y-110606525D01*
X211592240Y-110490000D01*
X211766632Y-110373475D01*
X211973475Y-110166632D01*
X212135990Y-109923411D01*
X212247932Y-109653158D01*
X212305000Y-109366260D01*
X212305000Y-109073740D01*
X212247932Y-108786842D01*
X212135990Y-108516589D01*
X211973475Y-108273368D01*
X211766632Y-108066525D01*
X211592240Y-107950000D01*
X211766632Y-107833475D01*
X211973475Y-107626632D01*
X212135990Y-107383411D01*
X212247932Y-107113158D01*
X212305000Y-106826260D01*
X212305000Y-106533740D01*
X212247932Y-106246842D01*
X212135990Y-105976589D01*
X211973475Y-105733368D01*
X211766632Y-105526525D01*
X211592240Y-105410000D01*
X211766632Y-105293475D01*
X211973475Y-105086632D01*
X212135990Y-104843411D01*
X212247932Y-104573158D01*
X212305000Y-104286260D01*
X212305000Y-103993740D01*
X212247932Y-103706842D01*
X212135990Y-103436589D01*
X211973475Y-103193368D01*
X211766632Y-102986525D01*
X211592240Y-102870000D01*
X211766632Y-102753475D01*
X211973475Y-102546632D01*
X212135990Y-102303411D01*
X212247932Y-102033158D01*
X212305000Y-101746260D01*
X212305000Y-101453740D01*
X212247932Y-101166842D01*
X212135990Y-100896589D01*
X211973475Y-100653368D01*
X211766632Y-100446525D01*
X211592240Y-100330000D01*
X211766632Y-100213475D01*
X211973475Y-100006632D01*
X212135990Y-99763411D01*
X212247932Y-99493158D01*
X212305000Y-99206260D01*
X212305000Y-98913740D01*
X212247932Y-98626842D01*
X212135990Y-98356589D01*
X211973475Y-98113368D01*
X211766632Y-97906525D01*
X211592240Y-97790000D01*
X211766632Y-97673475D01*
X211973475Y-97466632D01*
X212135990Y-97223411D01*
X212247932Y-96953158D01*
X212305000Y-96666260D01*
X212305000Y-96373740D01*
X212247932Y-96086842D01*
X212135990Y-95816589D01*
X211973475Y-95573368D01*
X211766632Y-95366525D01*
X211592240Y-95250000D01*
X211766632Y-95133475D01*
X211973475Y-94926632D01*
X212135990Y-94683411D01*
X212247932Y-94413158D01*
X212305000Y-94126260D01*
X212305000Y-93833740D01*
X212247932Y-93546842D01*
X212135990Y-93276589D01*
X211973475Y-93033368D01*
X211766632Y-92826525D01*
X211592240Y-92710000D01*
X211766632Y-92593475D01*
X211973475Y-92386632D01*
X212135990Y-92143411D01*
X212247932Y-91873158D01*
X212305000Y-91586260D01*
X212305000Y-91293740D01*
X212247932Y-91006842D01*
X212135990Y-90736589D01*
X211973475Y-90493368D01*
X211766632Y-90286525D01*
X211592240Y-90170000D01*
X211766632Y-90053475D01*
X211973475Y-89846632D01*
X212135990Y-89603411D01*
X212247932Y-89333158D01*
X212305000Y-89046260D01*
X212305000Y-88753740D01*
X212247932Y-88466842D01*
X212135990Y-88196589D01*
X211973475Y-87953368D01*
X211766632Y-87746525D01*
X211592240Y-87630000D01*
X211766632Y-87513475D01*
X211973475Y-87306632D01*
X212135990Y-87063411D01*
X212247932Y-86793158D01*
X212305000Y-86506260D01*
X212305000Y-86213740D01*
X212247932Y-85926842D01*
X212135990Y-85656589D01*
X211973475Y-85413368D01*
X211766632Y-85206525D01*
X211592240Y-85090000D01*
X211766632Y-84973475D01*
X211973475Y-84766632D01*
X212135990Y-84523411D01*
X212247932Y-84253158D01*
X212305000Y-83966260D01*
X212305000Y-83673740D01*
X212247932Y-83386842D01*
X212135990Y-83116589D01*
X211973475Y-82873368D01*
X211766632Y-82666525D01*
X211592240Y-82550000D01*
X211766632Y-82433475D01*
X211973475Y-82226632D01*
X212135990Y-81983411D01*
X212247932Y-81713158D01*
X212305000Y-81426260D01*
X212305000Y-81133740D01*
X212247932Y-80846842D01*
X212135990Y-80576589D01*
X211973475Y-80333368D01*
X211766632Y-80126525D01*
X211592240Y-80010000D01*
X211766632Y-79893475D01*
X211973475Y-79686632D01*
X212135990Y-79443411D01*
X212247932Y-79173158D01*
X212305000Y-78886260D01*
X212305000Y-78593740D01*
X212247932Y-78306842D01*
X212135990Y-78036589D01*
X211973475Y-77793368D01*
X211766632Y-77586525D01*
X211592240Y-77470000D01*
X211766632Y-77353475D01*
X211973475Y-77146632D01*
X212135990Y-76903411D01*
X212247932Y-76633158D01*
X212305000Y-76346260D01*
X212305000Y-76053740D01*
X212247932Y-75766842D01*
X212135990Y-75496589D01*
X211973475Y-75253368D01*
X211766632Y-75046525D01*
X211592240Y-74930000D01*
X211766632Y-74813475D01*
X211973475Y-74606632D01*
X212135990Y-74363411D01*
X212247932Y-74093158D01*
X212305000Y-73806260D01*
X212305000Y-73513740D01*
X212247932Y-73226842D01*
X212135990Y-72956589D01*
X211973475Y-72713368D01*
X211841620Y-72581513D01*
X211914180Y-72559502D01*
X212024494Y-72500537D01*
X212121185Y-72421185D01*
X212200537Y-72324494D01*
X212259502Y-72214180D01*
X212295812Y-72094482D01*
X212308072Y-71970000D01*
X212305000Y-71405750D01*
X212146250Y-71247000D01*
X210947000Y-71247000D01*
X210947000Y-71267000D01*
X210693000Y-71267000D01*
X210693000Y-71247000D01*
X209493750Y-71247000D01*
X209335000Y-71405750D01*
X209331928Y-71970000D01*
X209344188Y-72094482D01*
X209380498Y-72214180D01*
X209439463Y-72324494D01*
X209518815Y-72421185D01*
X209615506Y-72500537D01*
X209725820Y-72559502D01*
X209798380Y-72581513D01*
X209666525Y-72713368D01*
X209541822Y-72900000D01*
X209149320Y-72900000D01*
X209111997Y-72896324D01*
X209074674Y-72900000D01*
X209074665Y-72900000D01*
X208963012Y-72910997D01*
X208819751Y-72954454D01*
X208687722Y-73025026D01*
X208571997Y-73119999D01*
X208548199Y-73148997D01*
X197864000Y-83833197D01*
X197864000Y-81952323D01*
X197867676Y-81915000D01*
X197864000Y-81877677D01*
X197864000Y-81877667D01*
X197853003Y-81766014D01*
X197809546Y-81622753D01*
X197738974Y-81490724D01*
X197644001Y-81374999D01*
X197615004Y-81351202D01*
X197250000Y-80986198D01*
X197250000Y-80924061D01*
X197210226Y-80724102D01*
X197132205Y-80535744D01*
X197018937Y-80366226D01*
X196874774Y-80222063D01*
X196705256Y-80108795D01*
X196516898Y-80030774D01*
X196316939Y-79991000D01*
X196113061Y-79991000D01*
X195913102Y-80030774D01*
X195724744Y-80108795D01*
X195555226Y-80222063D01*
X195411063Y-80366226D01*
X195297795Y-80535744D01*
X195219774Y-80724102D01*
X195217126Y-80737416D01*
X195193748Y-80680977D01*
X195080480Y-80511459D01*
X194936317Y-80367296D01*
X194766799Y-80254028D01*
X194578441Y-80176007D01*
X194378482Y-80136233D01*
X194174604Y-80136233D01*
X193974645Y-80176007D01*
X193786287Y-80254028D01*
X193616769Y-80367296D01*
X193472606Y-80511459D01*
X193359338Y-80680977D01*
X193281317Y-80869335D01*
X193241543Y-81069294D01*
X193241543Y-81273172D01*
X193281317Y-81473131D01*
X193359338Y-81661489D01*
X193472606Y-81831007D01*
X193516544Y-81874945D01*
X193516543Y-85010493D01*
X193403256Y-84934797D01*
X193214898Y-84856776D01*
X193014939Y-84817002D01*
X192811061Y-84817002D01*
X192611102Y-84856776D01*
X192422744Y-84934797D01*
X192253226Y-85048065D01*
X192109063Y-85192228D01*
X191995795Y-85361746D01*
X191917774Y-85550104D01*
X191878000Y-85750063D01*
X191878000Y-85812200D01*
X191540501Y-86149700D01*
X191540501Y-82396591D01*
X191715256Y-82324205D01*
X191884774Y-82210937D01*
X192028937Y-82066774D01*
X192142205Y-81897256D01*
X192220226Y-81708898D01*
X192260000Y-81508939D01*
X192260000Y-81305061D01*
X192220226Y-81105102D01*
X192142205Y-80916744D01*
X192028937Y-80747226D01*
X191884774Y-80603063D01*
X191715256Y-80489795D01*
X191526898Y-80411774D01*
X191326939Y-80372000D01*
X191123061Y-80372000D01*
X190923102Y-80411774D01*
X190815491Y-80456348D01*
X190815491Y-74038310D01*
X191106802Y-73747000D01*
X191168939Y-73747000D01*
X191368898Y-73707226D01*
X191557256Y-73629205D01*
X191726774Y-73515937D01*
X191870937Y-73371774D01*
X191984205Y-73202256D01*
X192062226Y-73013898D01*
X192102000Y-72813939D01*
X192102000Y-72610061D01*
X192062226Y-72410102D01*
X191984205Y-72221744D01*
X191870937Y-72052226D01*
X191726774Y-71908063D01*
X191557256Y-71794795D01*
X191368898Y-71716774D01*
X191168939Y-71677000D01*
X190965061Y-71677000D01*
X190765102Y-71716774D01*
X190576744Y-71794795D01*
X190407226Y-71908063D01*
X190263063Y-72052226D01*
X190149795Y-72221744D01*
X190071774Y-72410102D01*
X190032000Y-72610061D01*
X190032000Y-72672198D01*
X189544493Y-73159705D01*
X189515490Y-73183508D01*
X189483078Y-73223003D01*
X189420517Y-73299233D01*
X189407264Y-73324028D01*
X189387932Y-73226842D01*
X189275990Y-72956589D01*
X189113475Y-72713368D01*
X188981620Y-72581513D01*
X189054180Y-72559502D01*
X189164494Y-72500537D01*
X189261185Y-72421185D01*
X189340537Y-72324494D01*
X189399502Y-72214180D01*
X189435812Y-72094482D01*
X189448072Y-71970000D01*
X189448072Y-70270000D01*
X209331928Y-70270000D01*
X209335000Y-70834250D01*
X209493750Y-70993000D01*
X210693000Y-70993000D01*
X210693000Y-69793750D01*
X210947000Y-69793750D01*
X210947000Y-70993000D01*
X212146250Y-70993000D01*
X212305000Y-70834250D01*
X212308072Y-70270000D01*
X212295812Y-70145518D01*
X212259502Y-70025820D01*
X212200537Y-69915506D01*
X212121185Y-69818815D01*
X212024494Y-69739463D01*
X211914180Y-69680498D01*
X211794482Y-69644188D01*
X211670000Y-69631928D01*
X211105750Y-69635000D01*
X210947000Y-69793750D01*
X210693000Y-69793750D01*
X210534250Y-69635000D01*
X209970000Y-69631928D01*
X209845518Y-69644188D01*
X209725820Y-69680498D01*
X209615506Y-69739463D01*
X209518815Y-69818815D01*
X209439463Y-69915506D01*
X209380498Y-70025820D01*
X209344188Y-70145518D01*
X209331928Y-70270000D01*
X189448072Y-70270000D01*
X189435812Y-70145518D01*
X189399502Y-70025820D01*
X189340537Y-69915506D01*
X189261185Y-69818815D01*
X189164494Y-69739463D01*
X189054180Y-69680498D01*
X188934482Y-69644188D01*
X188810000Y-69631928D01*
X187110000Y-69631928D01*
X186985518Y-69644188D01*
X186865820Y-69680498D01*
X186755506Y-69739463D01*
X186658815Y-69818815D01*
X186579463Y-69915506D01*
X186520498Y-70025820D01*
X186484188Y-70145518D01*
X186471928Y-70270000D01*
X186182000Y-70270000D01*
X186182000Y-69342000D01*
X212598000Y-69342000D01*
X212598000Y-123698000D01*
G36*
X202440001Y-86959079D02*
G01*
X202436324Y-86996411D01*
X202440001Y-87033744D01*
X202450998Y-87145397D01*
X202452603Y-87150688D01*
X202494454Y-87288657D01*
X202565026Y-87420687D01*
X202612248Y-87478226D01*
X202660000Y-87536412D01*
X202688998Y-87560210D01*
X203296999Y-88168212D01*
X203296999Y-89444420D01*
X203292000Y-89443928D01*
X202092000Y-89443928D01*
X201918746Y-89460992D01*
X201752150Y-89511528D01*
X201598614Y-89593595D01*
X201464038Y-89704038D01*
X201353595Y-89838614D01*
X201271528Y-89992150D01*
X201220992Y-90158746D01*
X201203928Y-90332000D01*
X201203928Y-91532000D01*
X201220992Y-91705254D01*
X201271528Y-91871850D01*
X201353595Y-92025386D01*
X201464038Y-92159962D01*
X201598614Y-92270405D01*
X201752150Y-92352472D01*
X201861293Y-92385580D01*
X201843208Y-92443603D01*
X202692000Y-93292395D01*
X202706143Y-93278253D01*
X202885748Y-93457858D01*
X202871605Y-93472000D01*
X203720397Y-94320792D01*
X203962689Y-94245271D01*
X204078525Y-94418632D01*
X204285368Y-94625475D01*
X204459760Y-94742000D01*
X204285368Y-94858525D01*
X204078525Y-95065368D01*
X203962689Y-95238729D01*
X203720397Y-95163208D01*
X202871605Y-96012000D01*
X202885748Y-96026143D01*
X202706143Y-96205748D01*
X202692000Y-96191605D01*
X201843208Y-97040397D01*
X201918514Y-97282000D01*
X201843208Y-97523603D01*
X202692000Y-98372395D01*
X202706143Y-98358253D01*
X202885748Y-98537858D01*
X202871605Y-98552000D01*
X202885748Y-98566143D01*
X202706143Y-98745748D01*
X202692000Y-98731605D01*
X201843208Y-99580397D01*
X201918514Y-99822000D01*
X201843208Y-100063603D01*
X202692000Y-100912395D01*
X203540792Y-100063603D01*
X203465486Y-99822000D01*
X203517180Y-99656151D01*
X203546001Y-99679804D01*
X204051704Y-100185509D01*
X203962689Y-100318729D01*
X203720397Y-100243208D01*
X202871605Y-101092000D01*
X203720397Y-101940792D01*
X203962689Y-101865271D01*
X204078525Y-102038632D01*
X204285368Y-102245475D01*
X204528589Y-102407990D01*
X204798842Y-102519932D01*
X205085740Y-102577000D01*
X205378260Y-102577000D01*
X205665158Y-102519932D01*
X205935411Y-102407990D01*
X206178632Y-102245475D01*
X206385475Y-102038632D01*
X206547990Y-101795411D01*
X206659932Y-101525158D01*
X206717000Y-101238260D01*
X206717000Y-100945740D01*
X206659932Y-100658842D01*
X206547990Y-100388589D01*
X206452720Y-100246008D01*
X206459294Y-100237998D01*
X208536000Y-98161292D01*
X208536000Y-102578678D01*
X208532324Y-102616000D01*
X208536000Y-102653322D01*
X208536000Y-102653332D01*
X208546997Y-102764985D01*
X208564902Y-102824010D01*
X208590454Y-102908246D01*
X208661026Y-103040276D01*
X208699359Y-103086984D01*
X208755999Y-103156001D01*
X208785002Y-103179803D01*
X208876193Y-103270994D01*
X208813061Y-103270994D01*
X208613102Y-103310768D01*
X208424744Y-103388789D01*
X208255226Y-103502057D01*
X208111063Y-103646220D01*
X207997795Y-103815738D01*
X207919774Y-104004096D01*
X207880000Y-104204055D01*
X207880000Y-104266192D01*
X207477952Y-104668241D01*
X207415774Y-104606063D01*
X207246256Y-104492795D01*
X207057898Y-104414774D01*
X206857939Y-104375000D01*
X206654061Y-104375000D01*
X206454102Y-104414774D01*
X206265744Y-104492795D01*
X206096226Y-104606063D01*
X205952063Y-104750226D01*
X205838795Y-104919744D01*
X205760774Y-105108102D01*
X205721000Y-105308061D01*
X205721000Y-105370198D01*
X201006002Y-110085197D01*
X200976998Y-110109000D01*
X200930668Y-110165454D01*
X200882025Y-110224725D01*
X200825220Y-110330999D01*
X200811453Y-110356755D01*
X200767996Y-110500016D01*
X200756999Y-110611669D01*
X200756999Y-110611679D01*
X200753323Y-110649001D01*
X200756999Y-110686324D01*
X200757000Y-116585201D01*
X199388000Y-115216201D01*
X199388000Y-110908322D01*
X199391676Y-110870999D01*
X199388000Y-110833676D01*
X199388000Y-110833667D01*
X199377003Y-110722014D01*
X199333546Y-110578753D01*
X199262974Y-110446724D01*
X199249811Y-110430685D01*
X199191799Y-110359996D01*
X199191795Y-110359992D01*
X199168001Y-110330999D01*
X199139009Y-110307206D01*
X198609550Y-109777748D01*
X198716274Y-109706437D01*
X198860437Y-109562274D01*
X198973705Y-109392756D01*
X199051726Y-109204398D01*
X199091500Y-109004439D01*
X199091500Y-108800561D01*
X199051726Y-108600602D01*
X198973705Y-108412244D01*
X198860437Y-108242726D01*
X198816500Y-108198789D01*
X198816500Y-102120397D01*
X201843208Y-102120397D01*
X201920843Y-102369472D01*
X202184883Y-102495371D01*
X202468411Y-102567339D01*
X202760531Y-102582611D01*
X203050019Y-102540599D01*
X203325747Y-102442919D01*
X203463157Y-102369472D01*
X203540792Y-102120397D01*
X202692000Y-101271605D01*
X201843208Y-102120397D01*
X198816500Y-102120397D01*
X198816500Y-101160531D01*
X201201389Y-101160531D01*
X201243401Y-101450019D01*
X201341081Y-101725747D01*
X201414528Y-101863157D01*
X201663603Y-101940792D01*
X202512395Y-101092000D01*
X201663603Y-100243208D01*
X201414528Y-100320843D01*
X201288629Y-100584883D01*
X201216661Y-100868411D01*
X201201389Y-101160531D01*
X198816500Y-101160531D01*
X198816500Y-98620531D01*
X201201389Y-98620531D01*
X201243401Y-98910019D01*
X201341081Y-99185747D01*
X201414528Y-99323157D01*
X201663603Y-99400792D01*
X202512395Y-98552000D01*
X201663603Y-97703208D01*
X201414528Y-97780843D01*
X201288629Y-98044883D01*
X201216661Y-98328411D01*
X201201389Y-98620531D01*
X198816500Y-98620531D01*
X198816500Y-96080531D01*
X201201389Y-96080531D01*
X201243401Y-96370019D01*
X201341081Y-96645747D01*
X201414528Y-96783157D01*
X201663603Y-96860792D01*
X202512395Y-96012000D01*
X201663603Y-95163208D01*
X201414528Y-95240843D01*
X201288629Y-95504883D01*
X201216661Y-95788411D01*
X201201389Y-96080531D01*
X198816500Y-96080531D01*
X198816500Y-94500397D01*
X201843208Y-94500397D01*
X201918514Y-94742000D01*
X201843208Y-94983603D01*
X202692000Y-95832395D01*
X203540792Y-94983603D01*
X203465486Y-94742000D01*
X203540792Y-94500397D01*
X202692000Y-93651605D01*
X201843208Y-94500397D01*
X198816500Y-94500397D01*
X198816500Y-93540531D01*
X201201389Y-93540531D01*
X201243401Y-93830019D01*
X201341081Y-94105747D01*
X201414528Y-94243157D01*
X201663603Y-94320792D01*
X202512395Y-93472000D01*
X201663603Y-92623208D01*
X201414528Y-92700843D01*
X201288629Y-92964883D01*
X201216661Y-93248411D01*
X201201389Y-93540531D01*
X198816500Y-93540531D01*
X198816500Y-85030299D01*
X202440000Y-81406799D01*
X202440001Y-86959079D01*
G37*
X202440001Y-86959079D02*
X202436324Y-86996411D01*
X202440001Y-87033744D01*
X202450998Y-87145397D01*
X202452603Y-87150688D01*
X202494454Y-87288657D01*
X202565026Y-87420687D01*
X202612248Y-87478226D01*
X202660000Y-87536412D01*
X202688998Y-87560210D01*
X203296999Y-88168212D01*
X203296999Y-89444420D01*
X203292000Y-89443928D01*
X202092000Y-89443928D01*
X201918746Y-89460992D01*
X201752150Y-89511528D01*
X201598614Y-89593595D01*
X201464038Y-89704038D01*
X201353595Y-89838614D01*
X201271528Y-89992150D01*
X201220992Y-90158746D01*
X201203928Y-90332000D01*
X201203928Y-91532000D01*
X201220992Y-91705254D01*
X201271528Y-91871850D01*
X201353595Y-92025386D01*
X201464038Y-92159962D01*
X201598614Y-92270405D01*
X201752150Y-92352472D01*
X201861293Y-92385580D01*
X201843208Y-92443603D01*
X202692000Y-93292395D01*
X202706143Y-93278253D01*
X202885748Y-93457858D01*
X202871605Y-93472000D01*
X203720397Y-94320792D01*
X203962689Y-94245271D01*
X204078525Y-94418632D01*
X204285368Y-94625475D01*
X204459760Y-94742000D01*
X204285368Y-94858525D01*
X204078525Y-95065368D01*
X203962689Y-95238729D01*
X203720397Y-95163208D01*
X202871605Y-96012000D01*
X202885748Y-96026143D01*
X202706143Y-96205748D01*
X202692000Y-96191605D01*
X201843208Y-97040397D01*
X201918514Y-97282000D01*
X201843208Y-97523603D01*
X202692000Y-98372395D01*
X202706143Y-98358253D01*
X202885748Y-98537858D01*
X202871605Y-98552000D01*
X202885748Y-98566143D01*
X202706143Y-98745748D01*
X202692000Y-98731605D01*
X201843208Y-99580397D01*
X201918514Y-99822000D01*
X201843208Y-100063603D01*
X202692000Y-100912395D01*
X203540792Y-100063603D01*
X203465486Y-99822000D01*
X203517180Y-99656151D01*
X203546001Y-99679804D01*
X204051704Y-100185509D01*
X203962689Y-100318729D01*
X203720397Y-100243208D01*
X202871605Y-101092000D01*
X203720397Y-101940792D01*
X203962689Y-101865271D01*
X204078525Y-102038632D01*
X204285368Y-102245475D01*
X204528589Y-102407990D01*
X204798842Y-102519932D01*
X205085740Y-102577000D01*
X205378260Y-102577000D01*
X205665158Y-102519932D01*
X205935411Y-102407990D01*
X206178632Y-102245475D01*
X206385475Y-102038632D01*
X206547990Y-101795411D01*
X206659932Y-101525158D01*
X206717000Y-101238260D01*
X206717000Y-100945740D01*
X206659932Y-100658842D01*
X206547990Y-100388589D01*
X206452720Y-100246008D01*
X206459294Y-100237998D01*
X208536000Y-98161292D01*
X208536000Y-102578678D01*
X208532324Y-102616000D01*
X208536000Y-102653322D01*
X208536000Y-102653332D01*
X208546997Y-102764985D01*
X208564902Y-102824010D01*
X208590454Y-102908246D01*
X208661026Y-103040276D01*
X208699359Y-103086984D01*
X208755999Y-103156001D01*
X208785002Y-103179803D01*
X208876193Y-103270994D01*
X208813061Y-103270994D01*
X208613102Y-103310768D01*
X208424744Y-103388789D01*
X208255226Y-103502057D01*
X208111063Y-103646220D01*
X207997795Y-103815738D01*
X207919774Y-104004096D01*
X207880000Y-104204055D01*
X207880000Y-104266192D01*
X207477952Y-104668241D01*
X207415774Y-104606063D01*
X207246256Y-104492795D01*
X207057898Y-104414774D01*
X206857939Y-104375000D01*
X206654061Y-104375000D01*
X206454102Y-104414774D01*
X206265744Y-104492795D01*
X206096226Y-104606063D01*
X205952063Y-104750226D01*
X205838795Y-104919744D01*
X205760774Y-105108102D01*
X205721000Y-105308061D01*
X205721000Y-105370198D01*
X201006002Y-110085197D01*
X200976998Y-110109000D01*
X200930668Y-110165454D01*
X200882025Y-110224725D01*
X200825220Y-110330999D01*
X200811453Y-110356755D01*
X200767996Y-110500016D01*
X200756999Y-110611669D01*
X200756999Y-110611679D01*
X200753323Y-110649001D01*
X200756999Y-110686324D01*
X200757000Y-116585201D01*
X199388000Y-115216201D01*
X199388000Y-110908322D01*
X199391676Y-110870999D01*
X199388000Y-110833676D01*
X199388000Y-110833667D01*
X199377003Y-110722014D01*
X199333546Y-110578753D01*
X199262974Y-110446724D01*
X199249811Y-110430685D01*
X199191799Y-110359996D01*
X199191795Y-110359992D01*
X199168001Y-110330999D01*
X199139009Y-110307206D01*
X198609550Y-109777748D01*
X198716274Y-109706437D01*
X198860437Y-109562274D01*
X198973705Y-109392756D01*
X199051726Y-109204398D01*
X199091500Y-109004439D01*
X199091500Y-108800561D01*
X199051726Y-108600602D01*
X198973705Y-108412244D01*
X198860437Y-108242726D01*
X198816500Y-108198789D01*
X198816500Y-102120397D01*
X201843208Y-102120397D01*
X201920843Y-102369472D01*
X202184883Y-102495371D01*
X202468411Y-102567339D01*
X202760531Y-102582611D01*
X203050019Y-102540599D01*
X203325747Y-102442919D01*
X203463157Y-102369472D01*
X203540792Y-102120397D01*
X202692000Y-101271605D01*
X201843208Y-102120397D01*
X198816500Y-102120397D01*
X198816500Y-101160531D01*
X201201389Y-101160531D01*
X201243401Y-101450019D01*
X201341081Y-101725747D01*
X201414528Y-101863157D01*
X201663603Y-101940792D01*
X202512395Y-101092000D01*
X201663603Y-100243208D01*
X201414528Y-100320843D01*
X201288629Y-100584883D01*
X201216661Y-100868411D01*
X201201389Y-101160531D01*
X198816500Y-101160531D01*
X198816500Y-98620531D01*
X201201389Y-98620531D01*
X201243401Y-98910019D01*
X201341081Y-99185747D01*
X201414528Y-99323157D01*
X201663603Y-99400792D01*
X202512395Y-98552000D01*
X201663603Y-97703208D01*
X201414528Y-97780843D01*
X201288629Y-98044883D01*
X201216661Y-98328411D01*
X201201389Y-98620531D01*
X198816500Y-98620531D01*
X198816500Y-96080531D01*
X201201389Y-96080531D01*
X201243401Y-96370019D01*
X201341081Y-96645747D01*
X201414528Y-96783157D01*
X201663603Y-96860792D01*
X202512395Y-96012000D01*
X201663603Y-95163208D01*
X201414528Y-95240843D01*
X201288629Y-95504883D01*
X201216661Y-95788411D01*
X201201389Y-96080531D01*
X198816500Y-96080531D01*
X198816500Y-94500397D01*
X201843208Y-94500397D01*
X201918514Y-94742000D01*
X201843208Y-94983603D01*
X202692000Y-95832395D01*
X203540792Y-94983603D01*
X203465486Y-94742000D01*
X203540792Y-94500397D01*
X202692000Y-93651605D01*
X201843208Y-94500397D01*
X198816500Y-94500397D01*
X198816500Y-93540531D01*
X201201389Y-93540531D01*
X201243401Y-93830019D01*
X201341081Y-94105747D01*
X201414528Y-94243157D01*
X201663603Y-94320792D01*
X202512395Y-93472000D01*
X201663603Y-92623208D01*
X201414528Y-92700843D01*
X201288629Y-92964883D01*
X201216661Y-93248411D01*
X201201389Y-93540531D01*
X198816500Y-93540531D01*
X198816500Y-85030299D01*
X202440000Y-81406799D01*
X202440001Y-86959079D01*
%TD*%
M02*
