%TF.GenerationSoftware,KiCad,Pcbnew,(5.1.6-0)*%
%TF.CreationDate,2021-10-14T13:54:28-06:00*%
%TF.ProjectId,ESP32-S2-Mini,45535033-322d-4533-922d-4d696e692e6b,rev?*%
%TF.SameCoordinates,Original*%
%TF.FileFunction,Soldermask,Top*%
%TF.FilePolarity,Negative*%
%FSLAX46Y46*%
G04 Gerber Fmt 4.6, Leading zero omitted, Abs format (unit mm)*
G04 Created by KiCad (PCBNEW (5.1.6-0)) date 2021-10-14 13:54:28*
%MOMM*%
%LPD*%
G01*
G04 APERTURE LIST*
%ADD10R,1.601600X2.101600*%
%ADD11R,3.901600X2.101600*%
%ADD12R,1.301600X1.301600*%
%ADD13C,0.100000*%
%ADD14R,0.901600X0.901600*%
%ADD15R,0.501600X0.901600*%
%ADD16R,0.901600X0.501600*%
%ADD17C,1.801600*%
%ADD18O,1.801600X1.801600*%
%ADD19R,1.801600X1.801600*%
%ADD20R,1.101600X1.601600*%
G04 APERTURE END LIST*
D10*
%TO.C,U1*%
X196673500Y-98132500D03*
X192073500Y-98132500D03*
X194373500Y-98132500D03*
D11*
X194373500Y-104432500D03*
%TD*%
D12*
%TO.C,U2*%
X197740000Y-78612000D03*
X201040000Y-78612000D03*
X201040000Y-75312000D03*
D13*
G36*
X198349911Y-74662176D02*
G01*
X198359440Y-74665067D01*
X198368223Y-74669761D01*
X198375921Y-74676079D01*
X198382239Y-74683777D01*
X198386933Y-74692560D01*
X198389824Y-74702089D01*
X198390800Y-74712000D01*
X198390800Y-75912000D01*
X198389824Y-75921911D01*
X198386933Y-75931440D01*
X198382239Y-75940223D01*
X198375921Y-75947921D01*
X198368223Y-75954239D01*
X198359440Y-75958933D01*
X198349911Y-75961824D01*
X198340000Y-75962800D01*
X197140000Y-75962800D01*
X197130089Y-75961824D01*
X197120560Y-75958933D01*
X197111777Y-75954239D01*
X197104079Y-75947921D01*
X197097761Y-75940223D01*
X197093067Y-75931440D01*
X197090176Y-75921911D01*
X197089200Y-75912000D01*
X197089200Y-75312000D01*
X197090176Y-75302089D01*
X197093067Y-75292560D01*
X197097761Y-75283777D01*
X197104079Y-75276079D01*
X197704079Y-74676079D01*
X197711777Y-74669761D01*
X197720560Y-74665067D01*
X197730089Y-74662176D01*
X197740000Y-74661200D01*
X198340000Y-74661200D01*
X198349911Y-74662176D01*
G37*
D12*
X199390000Y-78612000D03*
X197740000Y-76962000D03*
X199390000Y-75312000D03*
X201040000Y-76962000D03*
X199390000Y-76962000D03*
D14*
X206390000Y-83962000D03*
X192390000Y-83962000D03*
X206340000Y-69962000D03*
X192390000Y-69962000D03*
D15*
X193440000Y-69962000D03*
X194290000Y-69962000D03*
X195140000Y-69962000D03*
X195990000Y-69962000D03*
X196840000Y-69962000D03*
X197690000Y-69962000D03*
X198540000Y-69962000D03*
X199390000Y-69962000D03*
X200240000Y-69962000D03*
X201090000Y-69962000D03*
X201940000Y-69962000D03*
X202790000Y-69962000D03*
X203640000Y-69962000D03*
X204490000Y-69962000D03*
X205340000Y-69962000D03*
D16*
X206390000Y-71012000D03*
X206390000Y-71862000D03*
X206390000Y-72712000D03*
X206390000Y-73562000D03*
X206390000Y-74412000D03*
X206390000Y-75262000D03*
X206390000Y-76112000D03*
X206390000Y-76962000D03*
X206390000Y-77812000D03*
X206390000Y-78662000D03*
X206390000Y-79512000D03*
X206390000Y-80362000D03*
X206390000Y-81212000D03*
X206390000Y-82062000D03*
X206390000Y-82912000D03*
D15*
X205340000Y-83962000D03*
X204490000Y-83962000D03*
X203640000Y-83962000D03*
X202790000Y-83962000D03*
X201940000Y-83962000D03*
X201090000Y-83962000D03*
X200240000Y-83962000D03*
X199390000Y-83962000D03*
X198540000Y-83962000D03*
X197690000Y-83962000D03*
X196840000Y-83962000D03*
X195990000Y-83962000D03*
X195140000Y-83962000D03*
X194290000Y-83962000D03*
X193440000Y-83962000D03*
D16*
X192390000Y-82912000D03*
X192390000Y-82062000D03*
X192390000Y-81212000D03*
X192390000Y-80362000D03*
X192390000Y-79512000D03*
X192390000Y-78662000D03*
X192390000Y-77812000D03*
X192390000Y-76962000D03*
X192390000Y-76112000D03*
X192390000Y-75262000D03*
X192390000Y-74412000D03*
X192390000Y-73562000D03*
X192390000Y-72712000D03*
X192390000Y-71862000D03*
X192390000Y-71012000D03*
%TD*%
%TO.C,R2*%
G36*
G01*
X193013650Y-110725800D02*
X192050350Y-110725800D01*
G75*
G02*
X191781200Y-110456650I0J269150D01*
G01*
X191781200Y-109918350D01*
G75*
G02*
X192050350Y-109649200I269150J0D01*
G01*
X193013650Y-109649200D01*
G75*
G02*
X193282800Y-109918350I0J-269150D01*
G01*
X193282800Y-110456650D01*
G75*
G02*
X193013650Y-110725800I-269150J0D01*
G01*
G37*
G36*
G01*
X193013650Y-112600800D02*
X192050350Y-112600800D01*
G75*
G02*
X191781200Y-112331650I0J269150D01*
G01*
X191781200Y-111793350D01*
G75*
G02*
X192050350Y-111524200I269150J0D01*
G01*
X193013650Y-111524200D01*
G75*
G02*
X193282800Y-111793350I0J-269150D01*
G01*
X193282800Y-112331650D01*
G75*
G02*
X193013650Y-112600800I-269150J0D01*
G01*
G37*
%TD*%
%TO.C,R1*%
G36*
G01*
X196569650Y-108772300D02*
X195606350Y-108772300D01*
G75*
G02*
X195337200Y-108503150I0J269150D01*
G01*
X195337200Y-107964850D01*
G75*
G02*
X195606350Y-107695700I269150J0D01*
G01*
X196569650Y-107695700D01*
G75*
G02*
X196838800Y-107964850I0J-269150D01*
G01*
X196838800Y-108503150D01*
G75*
G02*
X196569650Y-108772300I-269150J0D01*
G01*
G37*
G36*
G01*
X196569650Y-110647300D02*
X195606350Y-110647300D01*
G75*
G02*
X195337200Y-110378150I0J269150D01*
G01*
X195337200Y-109839850D01*
G75*
G02*
X195606350Y-109570700I269150J0D01*
G01*
X196569650Y-109570700D01*
G75*
G02*
X196838800Y-109839850I0J-269150D01*
G01*
X196838800Y-110378150D01*
G75*
G02*
X196569650Y-110647300I-269150J0D01*
G01*
G37*
%TD*%
D17*
%TO.C,J4*%
X205232000Y-101092000D03*
X205232000Y-98552000D03*
X205232000Y-96012000D03*
X205232000Y-93472000D03*
X205232000Y-90932000D03*
X202692000Y-101092000D03*
X202692000Y-98552000D03*
X202692000Y-96012000D03*
X202692000Y-93472000D03*
G36*
G01*
X201791200Y-91567859D02*
X201791200Y-90296141D01*
G75*
G02*
X202056141Y-90031200I264941J0D01*
G01*
X203327859Y-90031200D01*
G75*
G02*
X203592800Y-90296141I0J-264941D01*
G01*
X203592800Y-91567859D01*
G75*
G02*
X203327859Y-91832800I-264941J0D01*
G01*
X202056141Y-91832800D01*
G75*
G02*
X201791200Y-91567859I0J264941D01*
G01*
G37*
%TD*%
%TO.C,J3*%
X205232000Y-117856000D03*
X205232000Y-115316000D03*
X205232000Y-112776000D03*
X202692000Y-117856000D03*
X202692000Y-115316000D03*
G36*
G01*
X201791200Y-113411859D02*
X201791200Y-112140141D01*
G75*
G02*
X202056141Y-111875200I264941J0D01*
G01*
X203327859Y-111875200D01*
G75*
G02*
X203592800Y-112140141I0J-264941D01*
G01*
X203592800Y-113411859D01*
G75*
G02*
X203327859Y-113676800I-264941J0D01*
G01*
X202056141Y-113676800D01*
G75*
G02*
X201791200Y-113411859I0J264941D01*
G01*
G37*
%TD*%
D18*
%TO.C,J2*%
X210820000Y-121920000D03*
X210820000Y-119380000D03*
X210820000Y-116840000D03*
X210820000Y-114300000D03*
X210820000Y-111760000D03*
X210820000Y-109220000D03*
X210820000Y-106680000D03*
X210820000Y-104140000D03*
X210820000Y-101600000D03*
X210820000Y-99060000D03*
X210820000Y-96520000D03*
X210820000Y-93980000D03*
X210820000Y-91440000D03*
X210820000Y-88900000D03*
X210820000Y-86360000D03*
X210820000Y-83820000D03*
X210820000Y-81280000D03*
X210820000Y-78740000D03*
X210820000Y-76200000D03*
X210820000Y-73660000D03*
D19*
X210820000Y-71120000D03*
%TD*%
D18*
%TO.C,J1*%
X187960000Y-121920000D03*
X187960000Y-119380000D03*
X187960000Y-116840000D03*
X187960000Y-114300000D03*
X187960000Y-111760000D03*
X187960000Y-109220000D03*
X187960000Y-106680000D03*
X187960000Y-104140000D03*
X187960000Y-101600000D03*
X187960000Y-99060000D03*
X187960000Y-96520000D03*
X187960000Y-93980000D03*
X187960000Y-91440000D03*
X187960000Y-88900000D03*
X187960000Y-86360000D03*
X187960000Y-83820000D03*
X187960000Y-81280000D03*
X187960000Y-78740000D03*
X187960000Y-76200000D03*
X187960000Y-73660000D03*
D19*
X187960000Y-71120000D03*
%TD*%
D20*
%TO.C,D1*%
X195910000Y-116930000D03*
X192710000Y-116930000D03*
X195910000Y-121830000D03*
X192710000Y-121830000D03*
%TD*%
%TO.C,C5*%
G36*
G01*
X192804200Y-88619650D02*
X192804200Y-87656350D01*
G75*
G02*
X193073350Y-87387200I269150J0D01*
G01*
X193611650Y-87387200D01*
G75*
G02*
X193880800Y-87656350I0J-269150D01*
G01*
X193880800Y-88619650D01*
G75*
G02*
X193611650Y-88888800I-269150J0D01*
G01*
X193073350Y-88888800D01*
G75*
G02*
X192804200Y-88619650I0J269150D01*
G01*
G37*
G36*
G01*
X190929200Y-88619650D02*
X190929200Y-87656350D01*
G75*
G02*
X191198350Y-87387200I269150J0D01*
G01*
X191736650Y-87387200D01*
G75*
G02*
X192005800Y-87656350I0J-269150D01*
G01*
X192005800Y-88619650D01*
G75*
G02*
X191736650Y-88888800I-269150J0D01*
G01*
X191198350Y-88888800D01*
G75*
G02*
X190929200Y-88619650I0J269150D01*
G01*
G37*
%TD*%
%TO.C,C4*%
G36*
G01*
X192005800Y-91212350D02*
X192005800Y-92175650D01*
G75*
G02*
X191736650Y-92444800I-269150J0D01*
G01*
X191198350Y-92444800D01*
G75*
G02*
X190929200Y-92175650I0J269150D01*
G01*
X190929200Y-91212350D01*
G75*
G02*
X191198350Y-90943200I269150J0D01*
G01*
X191736650Y-90943200D01*
G75*
G02*
X192005800Y-91212350I0J-269150D01*
G01*
G37*
G36*
G01*
X193880800Y-91212350D02*
X193880800Y-92175650D01*
G75*
G02*
X193611650Y-92444800I-269150J0D01*
G01*
X193073350Y-92444800D01*
G75*
G02*
X192804200Y-92175650I0J269150D01*
G01*
X192804200Y-91212350D01*
G75*
G02*
X193073350Y-90943200I269150J0D01*
G01*
X193611650Y-90943200D01*
G75*
G02*
X193880800Y-91212350I0J-269150D01*
G01*
G37*
%TD*%
%TO.C,C3*%
G36*
G01*
X195894300Y-94768350D02*
X195894300Y-95731650D01*
G75*
G02*
X195625150Y-96000800I-269150J0D01*
G01*
X195086850Y-96000800D01*
G75*
G02*
X194817700Y-95731650I0J269150D01*
G01*
X194817700Y-94768350D01*
G75*
G02*
X195086850Y-94499200I269150J0D01*
G01*
X195625150Y-94499200D01*
G75*
G02*
X195894300Y-94768350I0J-269150D01*
G01*
G37*
G36*
G01*
X197769300Y-94768350D02*
X197769300Y-95731650D01*
G75*
G02*
X197500150Y-96000800I-269150J0D01*
G01*
X196961850Y-96000800D01*
G75*
G02*
X196692700Y-95731650I0J269150D01*
G01*
X196692700Y-94768350D01*
G75*
G02*
X196961850Y-94499200I269150J0D01*
G01*
X197500150Y-94499200D01*
G75*
G02*
X197769300Y-94768350I0J-269150D01*
G01*
G37*
%TD*%
%TO.C,C2*%
G36*
G01*
X192005800Y-94768350D02*
X192005800Y-95731650D01*
G75*
G02*
X191736650Y-96000800I-269150J0D01*
G01*
X191198350Y-96000800D01*
G75*
G02*
X190929200Y-95731650I0J269150D01*
G01*
X190929200Y-94768350D01*
G75*
G02*
X191198350Y-94499200I269150J0D01*
G01*
X191736650Y-94499200D01*
G75*
G02*
X192005800Y-94768350I0J-269150D01*
G01*
G37*
G36*
G01*
X193880800Y-94768350D02*
X193880800Y-95731650D01*
G75*
G02*
X193611650Y-96000800I-269150J0D01*
G01*
X193073350Y-96000800D01*
G75*
G02*
X192804200Y-95731650I0J269150D01*
G01*
X192804200Y-94768350D01*
G75*
G02*
X193073350Y-94499200I269150J0D01*
G01*
X193611650Y-94499200D01*
G75*
G02*
X193880800Y-94768350I0J-269150D01*
G01*
G37*
%TD*%
%TO.C,C1*%
G36*
G01*
X196569650Y-112582300D02*
X195606350Y-112582300D01*
G75*
G02*
X195337200Y-112313150I0J269150D01*
G01*
X195337200Y-111774850D01*
G75*
G02*
X195606350Y-111505700I269150J0D01*
G01*
X196569650Y-111505700D01*
G75*
G02*
X196838800Y-111774850I0J-269150D01*
G01*
X196838800Y-112313150D01*
G75*
G02*
X196569650Y-112582300I-269150J0D01*
G01*
G37*
G36*
G01*
X196569650Y-114457300D02*
X195606350Y-114457300D01*
G75*
G02*
X195337200Y-114188150I0J269150D01*
G01*
X195337200Y-113649850D01*
G75*
G02*
X195606350Y-113380700I269150J0D01*
G01*
X196569650Y-113380700D01*
G75*
G02*
X196838800Y-113649850I0J-269150D01*
G01*
X196838800Y-114188150D01*
G75*
G02*
X196569650Y-114457300I-269150J0D01*
G01*
G37*
%TD*%
M02*
